
<svg version="1.1" id="Layer_1" xmlns="http://www.w3.org/2000/svg" xmlns:xlink="http://www.w3.org/1999/xlink" x="0px" y="0px"
	 viewBox="0 0 274.3 200.6" style="enable-background:new 0 0 274.3 200.6;" xml:space="preserve">
<style type="text/css">
	.st0{fill:url(#SVGID_1_);}
	.st1{fill:#191919;}
	.st2{clip-path:url(#SVGID_00000018951720712207286020000011989606416548176811_);fill:#191919;}
	.st3{clip-path:url(#SVGID_00000160911559198707431320000003190054874228519588_);fill:#191919;}
	.st4{fill:url(#SVGID_00000091719879944742870030000005972157269648039346_);}
	.st5{clip-path:url(#SVGID_00000085945347230127032560000014248587621423369629_);fill:#191919;}
	.st6{clip-path:url(#SVGID_00000102536440372175982900000015162671305823508920_);fill:#191919;}
	.st7{fill:#262626;}
	.st8{fill:#FFFFFF;}
</style>
<g id="Layer_2">
</g>
<g>
	<g>
		<g>
			<linearGradient id="SVGID_1_" gradientUnits="userSpaceOnUse" x1="56.6749" y1="92.1719" x2="223.0787" y2="92.1719">
				<stop  offset="0" style="stop-color:#20C6ED"/>
				<stop  offset="1" style="stop-color:#207EED"/>
			</linearGradient>
			<path class="st0" d="M143.1,168.3c0,0,83.5-71,79.9-144.5c0,0-4.5-14.5-13.2-5.2c0,0-10.4,5.6-10.2,12.1c0,0-8.8,2.6-10.2,10.1
				c0,0-10.6,0.8-13.6,9.6c0,0-7.3-1.9-7.6,2c0,0-4-2.1-6.4,1.4c0,0-7.3,4.2-8.7,3c0,0-4.2,0.8-6.5,5.3c0,0-10.6,8.8-10.7,17.1
				l-0.1,5.7c0,0-4.3-8.4-7.1-9.5l-4.6-4.5c0,0-5.1-5.5-7-2c0,0-0.7,4.6-7.7,1.3c0,0-8.5-2-8.2,3.9c0,0-4.2,3.8-5.7,3.2
				c0,0-9.9,2.3-10.5,6.2c0,0-4.4,3.3-5.1,1.8c0,0-4.6-1.2-8.1,10l-6.2,11.2c0,0-6.3,5.8-5.2,13.1c0,0-7.7,10.6-1.5,17.8
				c0,0,14.4,25.3,56.5,24c0,0,15.9,0.8,19.6,5.5C135.1,167,140.9,170.2,143.1,168.3z"/>
			<path class="st1" d="M73.5,152.5c-10.2-6.4-14.8-13.5-15.2-14.3c-5.7-6.8,0-16.5,1.3-18.6c-0.7-7,4.5-12.6,5.5-13.6l6-10.9
				c1.6-4.9,3.5-8.2,5.9-9.8c1.9-1.3,3.2-1,3.4-0.9l0.3,0.1l0.1,0.3c0.3,0.1,2-0.7,3.6-1.8c1.3-4.2,9.5-6.3,11.2-6.7l0.2-0.1
				l0.2,0.1c0.5,0.2,2.5-1,4.4-2.6c0.1-1.6,0.8-2.7,1.4-3.3c2.5-2.5,7.5-1.4,8.1-1.3l0.1,0c3.4,1.6,5,1.2,5.6,0.7
				c0.6-0.4,0.7-1,0.7-1.1l0-0.2l0.1-0.2c0.5-0.9,1.1-1.4,1.9-1.7c2.6-0.7,5.8,2.6,6.4,3.3l4.5,4.4c1.9,0.8,4.1,4.2,5.7,6.8l0-2
				c0.1-8.2,9.4-16.6,10.9-17.9c2.6-4.9,7-5.7,7.2-5.7l0.3-0.1l0.2,0.2c0.5,0.4,4.1-0.9,7.6-2.9c1.9-2.5,4.6-2.5,6.4-2
				c0.2-0.4,0.5-0.7,0.8-1c1.8-1.6,5.2-1.2,6.8-0.8c3.1-7.3,10.9-9,13.4-9.4c1.7-6.2,7.8-9,10-9.8c0.6-6.3,9.2-11.4,10.6-12.2
				c2.3-2.4,4.6-3.5,6.8-3.3c5.1,0.6,7.6,8.4,7.7,8.8l0,0.2c1.9,38.3-20.1,75.9-38.9,100.6c-20.1,26.5-40.9,44.4-41.5,44.9
				c-2.6,2.2-7.9-0.5-8.9-1.1l-0.1-0.1l-0.1-0.1c-3.5-4.4-19-5.2-19.1-5.2C96.1,163.1,82.6,158.2,73.5,152.5z M79.5,86.3
				c-0.3,0-1,0.1-1.8,0.7c-1.3,0.9-3.2,3.1-4.9,8.5l-0.1,0.2l-6.3,11.4l-0.1,0.1c-0.2,0.2-5.8,5.5-4.9,12.1l0.1,0.4l-0.3,0.4
				c-0.3,0.4-7.1,10-1.5,16.5l0.1,0.1c0.1,0.2,14.7,25,55.9,23.7c0.7,0,16.1,0.9,20.1,5.6c2.1,1.2,5.7,2.4,6.9,1.4l0,0
				c0.2-0.2,21-18,41.1-44.5c18.5-24.4,40.1-61.3,38.3-98.9c-0.3-0.9-2.6-7.3-6.5-7.7c-1.6-0.2-3.4,0.8-5.3,2.8l-0.1,0.1l-0.2,0.1
				c-0.1,0.1-9.7,5.3-9.5,11l0,0.9l-0.9,0.3c-0.1,0-8.1,2.5-9.4,9.1l-0.2,0.9l-0.8,0.1c-0.1,0-9.9,0.9-12.7,8.8l-0.3,1l-0.8-0.2
				c-1.9-0.5-5-0.7-6,0.2c-0.1,0.1-0.3,0.3-0.3,0.7l-0.1,1.7l-1.3-0.7c-0.1-0.1-3.4-1.7-5.2,1l-0.2,0.2l-0.2,0.1
				c-2.2,1.3-7.3,3.9-9.3,3.1c-0.9,0.2-3.7,1.2-5.5,4.7l-0.1,0.2l-0.2,0.2c-0.1,0.1-10.1,8.5-10.2,16.2l-0.1,9.7l-1.6-3.2
				c-1.2-2.3-4.6-8.4-6.7-9.2l-0.1,0l-4.7-4.6c-1.3-1.4-3.7-3.3-5-2.9c-0.2,0-0.3,0.1-0.5,0.4c-0.2,0.7-0.7,1.7-1.7,2.4
				c-1.7,1.2-4.1,1-7.2-0.5c-1.8-0.4-5-0.6-6.3,0.7c-0.2,0.2-0.7,0.7-0.6,2l0,0.6l-0.4,0.4c-1,0.9-4.5,3.8-6.3,3.5
				c-3.8,0.9-9.1,3.1-9.4,5.2L86,84l-0.4,0.3C84.1,85.4,80.7,87.6,79.5,86.3z"/>
		</g>
		<g>
			<defs>
				<path id="SVGID_00000183945064368305424780000016237369068950874533_" d="M174.1,48.3l1.6,2c0,0,10.5-7.9,13.1-6.2
					c0,0,4.8-7.7,10.6-8.1c0,0,3.7-6.8,8-7.4c0,0,8.3-12.6,8.7-6c0,0,16.9,60.8-77,146l0.8,3.7l24.1-17.2l25.3-30.1L220,68.4
					l6.8-37.6L222.5,19c0,0-5.7-7.5-12.3-4.5l-35.6,20.4L174.1,48.3z"/>
			</defs>
			<clipPath id="SVGID_00000047774647722570456110000001820195588143769230_">
				<use xlink:href="#SVGID_00000183945064368305424780000016237369068950874533_"  style="overflow:visible;"/>
			</clipPath>
			<path style="clip-path:url(#SVGID_00000047774647722570456110000001820195588143769230_);fill:#191919;" d="M143.1,168.3
				c0,0,83.5-71,79.9-144.5c0,0-4.5-14.5-13.2-5.2c0,0-10.4,5.6-10.2,12.1c0,0-8.8,2.6-10.2,10.1c0,0-10.6,0.8-13.6,9.6
				c0,0-7.3-1.9-7.6,2c0,0-4-2.1-6.4,1.4c0,0-7.3,4.2-8.7,3c0,0-4.2,0.8-6.5,5.3c0,0-10.6,8.8-10.7,17.1l-0.1,5.7
				c0,0-4.3-8.4-7.1-9.5l-4.6-4.5c0,0-5.1-5.5-7-2c0,0-0.7,4.6-7.7,1.3c0,0-8.5-2-8.2,3.9c0,0-4.2,3.8-5.7,3.2c0,0-9.9,2.3-10.5,6.2
				c0,0-4.4,3.3-5.1,1.8c0,0-4.6-1.2-8.1,10l-6.2,11.2c0,0-6.3,5.8-5.2,13.1c0,0-7.7,10.6-1.5,17.8c0,0,14.4,25.3,56.5,24
				c0,0,15.9,0.8,19.6,5.5C135.1,167,140.9,170.2,143.1,168.3z"/>
		</g>
		<g>
			<defs>
				<path id="SVGID_00000150807144666673694860000002597470294323760564_" d="M143.1,168.3c0,0,83.5-71,79.9-144.5
					c0,0-4.5-14.5-13.2-5.2c0,0-10.4,5.6-10.2,12.1c0,0-8.8,2.6-10.2,10.1c0,0-10.6,0.8-13.6,9.6c0,0-7.3-1.9-7.6,2
					c0,0-4-2.1-6.4,1.4c0,0-7.3,4.2-8.7,3c0,0-4.2,0.8-6.5,5.3c0,0-10.6,8.8-10.7,17.1l-0.1,5.7c0,0-4.3-8.4-7.1-9.5l-4.6-4.5
					c0,0-5.1-5.5-7-2c0,0-0.7,4.6-7.7,1.3c0,0-8.5-2-8.2,3.9c0,0-4.2,3.8-5.7,3.2c0,0-9.9,2.3-10.5,6.2c0,0-4.4,3.3-5.1,1.8
					c0,0-4.6-1.2-8.1,10l-6.2,11.2c0,0-6.3,5.8-5.2,13.1c0,0-7.7,10.6-1.5,17.8c0,0,14.4,25.3,56.5,24c0,0,15.9,0.8,19.6,5.5
					C135.1,167,140.9,170.2,143.1,168.3z"/>
			</defs>
			<clipPath id="SVGID_00000035502559013542316700000001447494275162040732_">
				<use xlink:href="#SVGID_00000150807144666673694860000002597470294323760564_"  style="overflow:visible;"/>
			</clipPath>
			<path style="clip-path:url(#SVGID_00000035502559013542316700000001447494275162040732_);fill:#191919;" d="M122.8,164.4
				c0,0-14.4-10.9-38.4-15.1c0,0-19.9-5.3-26.3-31.4l-7.9,19.1l4.1,5.7L72.6,154l15.8,9.8l17.3,0.7L122.8,164.4z"/>
		</g>
		<g>
			<path class="st1" d="M195.3,99.7c21.7-44.4,11.3-77.6,11.2-77.9l-0.8,0.5c0.1,0.3,10.2,32.8-10.8,76.4c-2.3-6-1.1-10.5-1.1-10.5
				c9.4-23.2,2.6-53,2.5-53.3l-0.9,0.4c0.1,0.3,6.8,29.8-2.5,52.7c-0.1,0.3-1.9,6.8,2.9,14.9l0.8-0.7
				C196.1,101.4,195.7,100.5,195.3,99.7z"/>
			<path class="st1" d="M155.2,133c3.3-3.3,13.1-24,13.9-25.6l11.1-14.8l0,0l0,0l5.9-9l0-0.1l0-0.1c2.5-6.5,0.9-41.4,0.9-42.9
				l-0.9,0.2c0,0.4,1.6,35.9-0.8,42.4l-4.5,6.9c1.4-10.3-5.1-39-5.4-40.4l-0.9,0.4c2.8,12.3,7.4,36.9,4.9,42.1L168.3,107l0,0.1
				c-3.3,6.9-9.7,19.9-12.8,24.2c4.9-29.9-3.9-74.5-4-75l-0.9,0.4c0.1,0.5,9.1,46.4,3.7,76c-5,11.3-12.4,27.5-15.1,32.9
				c3.1-20.1,1.7-94.4,1.7-97.7l-0.9,0.2c0,0.6,0.8,43.6-0.1,73.6c-3.2-3.9-8.9-15.5-9.4-16.5c-1.4-9.6-23.3-53.5-24.2-55.4
				l-0.8,0.6c0.2,0.5,22.9,45.9,24.1,55.2l0,0.1c0.3,0.6,7,14.3,10.2,17.4c-0.3,10.1-0.8,18.6-1.7,23.3l-18.6-20.6
				c-0.3-4.1-7.7-13.9-8.5-14.9c-3.7-23.9-35-42.5-35.3-42.6l-0.5,0.9c0.3,0.2,30.5,18.1,34.8,41.1l-44.7-24.1l-0.5,0.9l45.5,24.5
				c0.6,0.8,7.4,9.8,8.2,14c-5.5-0.8-44.1-6.5-60.1-22.2l-0.7,0.8c2.2,2.2,4.8,4.2,7.8,6c19.3,12,51,16.2,53.2,16.5l19.1,21.1
				c0,0.2,0.1,0.4,0.2,0.4c0,0,0.1,0,0.1,0c0.5,0.1,0.8,0.1,8.9-17.8C151,142.3,154.7,134,155.2,133z"/>
		</g>
	</g>
	<g>
		<g>
			
				<linearGradient id="SVGID_00000158716398327980266350000009051713406724528778_" gradientUnits="userSpaceOnUse" x1="18.497" y1="94.3664" x2="156.4765" y2="94.3664">
				<stop  offset="0" style="stop-color:#20C6ED"/>
				<stop  offset="1" style="stop-color:#207EED"/>
			</linearGradient>
			<path style="fill:url(#SVGID_00000158716398327980266350000009051713406724528778_);" d="M140.9,165.3c0,0,41-101.1-10.2-159.8
				c0,0-14-9.6-17.1,2.5c0,0-7.2,9.9-2.8,15.2c0,0-7.4,6.6-4.1,13.5c0,0-10.5,6.1-8,14.9c0,0-8.8,2.2-6.6,5.5c0,0-5.5,0.3-5.8,4.4
				c0,0-5,7.2-7.2,6.9c0,0-3.9,2.8-3.3,7.7c0,0-5.3,12.7-0.1,19.6l3.6,4.8c0,0-9.9-4.8-13.5-4.2l-7.7-1.4c0,0-8.8-1.9-8.5,1.9
				c0,0,2.2,4.1-7.2,5c0,0-10.1,2.7-6.1,7.4c0,0-1.9,5.2-3.9,5.5c0,0-8.8,6.9-6.9,10.5c0,0-2.5,5-4.1,4.1c0,0-5.5,1.4-1.9,12.4
				l0.8,12.4c0,0-2.8,8,3,13.5c0,0-1.1,12.7,9.9,15.4c0,0,31.4,13.5,74.4-9.1c0,0,17.1-7.4,24-5.5
				C131.8,168.3,139.9,168,140.9,165.3z"/>
			<path class="st1" d="M58.3,187.8c-14.8,0-24.1-3.6-25.1-4c-10.4-2.6-10.7-13.5-10.6-16c-5.3-5.4-3.4-12.7-3-14l-0.8-12.1
				c-1.5-4.8-1.6-8.5-0.2-11.1c1.1-2,2.7-2.5,2.9-2.5l0.4-0.1l0.3,0.2c0.4,0,1.7-1.6,2.6-3.3c-1.4-4.1,5.9-10,7.4-11.2l0.2-0.2
				l0.3,0c0.6-0.1,2-2.1,2.9-4.4c-1-1.4-0.9-2.6-0.7-3.4c1-3.3,6.9-5,7.6-5.2l0.2,0c4.6-0.4,5.9-1.6,6.3-2.2
				c0.4-0.6,0.1-1.2,0.1-1.3l-0.1-0.2l0-0.2c-0.1-1,0.3-1.8,0.9-2.4c2.2-1.9,7.7-0.8,8.8-0.6l7.5,1.3c2.5-0.3,7.1,1.4,10.3,2.7
				l-1.3-1.6c-5.2-6.8-0.9-18.4-0.2-20.3c-0.5-5.3,3.6-8.3,3.7-8.4l0.3-0.2l0.4,0c0.8,0.1,3.7-2.9,6.1-6.3c0.4-3.1,3.2-4.4,5.4-4.9
				c0-0.5,0.1-0.9,0.2-1.2c0.9-2.2,4.7-3.6,6.6-4.2c-1.4-7.6,5.6-13,7.9-14.6c-2.2-6,2.3-11.4,4.1-13.2c-3.5-5.5,2.2-14.1,3.2-15.5
				c0.8-3.2,2.5-5.3,4.9-6.2c5.7-2.1,13.3,3.1,13.7,3.3l0.2,0.2c26.7,30.6,28.1,72.7,24.6,102.7c-3.8,32.1-13.9,57.5-14.2,58.1
				c-1.2,3.2-8.5,3.6-10,3.7l-0.2,0l-0.2,0c-6.5-1.8-23.1,5.4-23.3,5.5C88.7,185,71.3,187.8,58.3,187.8z M21.7,130.2
				c-0.3,0.2-1,0.6-1.5,1.5c-0.7,1.4-1.3,4.2,0.5,9.5l0,0.2l0.8,12.6l-0.1,0.2c-0.1,0.3-2.5,7.5,2.8,12.5l0.3,0.3l0,0.5
				c0,0.5-0.9,11.9,9.2,14.4l0.2,0.1c0.3,0.1,31.5,13,73.5-9.1c0.8-0.3,17.3-7.5,24.5-5.6c3-0.1,7.5-1,8-2.4l0,0
				c0.1-0.3,10.3-25.6,14.1-57.7c3.5-29.5,2.1-71-24-101c-0.9-0.6-7.4-4.7-11.7-3c-1.8,0.7-3.1,2.4-3.7,5l0,0.2l-0.1,0.2
				c-0.1,0.1-6.7,9.3-2.8,13.9l0.6,0.7l-0.7,0.6c-0.1,0.1-6.8,6.2-3.9,12.3l0.4,0.8l-0.8,0.5c-0.1,0.1-9.8,5.8-7.5,13.7l0.3,1
				l-1,0.3c-2.3,0.6-5.7,1.9-6.2,3.2c-0.1,0.2-0.1,0.4,0.1,0.8l1,1.5L92.2,58c-0.2,0-4.6,0.3-4.8,3.5l0,0.3L87.2,62
				c-1.5,2.2-5.1,7-7.6,7.3c-0.7,0.6-3.1,2.9-2.7,6.6l0,0.3l-0.1,0.2c-0.1,0.1-5.1,12.2-0.2,18.6l6.2,8.1l-3.8-1.8
				c-2.7-1.3-10.2-4.5-12.9-4.1l-0.2,0l-7.9-1.4c-2.3-0.5-6-0.8-7.1,0.2c-0.1,0.1-0.3,0.3-0.3,0.6c0.3,0.6,0.4,1.8-0.2,2.9
				c-1,1.8-3.6,2.9-7.8,3.3c-2.1,0.6-5.6,2.1-6.1,3.8c-0.1,0.2-0.3,0.9,0.6,2l0.4,0.4l-0.2,0.5c-0.5,1.3-2.2,5.4-4.4,6.1
				c-3.4,2.7-7.5,7.1-6.5,9.1l0.2,0.5l-0.2,0.5C25.8,127.1,23.8,130.7,21.7,130.2z"/>
		</g>
		<g>
			<defs>
				<path id="SVGID_00000001628212255854093840000008334153051497616023_" d="M95.7,50.7l3,0.8c0,0,5.8-11.8,9.6-11.8
					c0,0,0-8.8,5.8-12.1c0,0-0.6-7.4,3.6-10.2c0,0,0.6-14.6,5.2-9.4c0,0,56.9,41.4,14.1,159.6l3.2,2.7l14-26.4l6.9-37.7l-4.8-62.3
					L139.3,9.3l-12.1-7.5c0,0-10.7-3.3-15.7,2.5l-24,35L95.7,50.7z"/>
			</defs>
			<clipPath id="SVGID_00000116932705690254138910000017470616021561648520_">
				<use xlink:href="#SVGID_00000001628212255854093840000008334153051497616023_"  style="overflow:visible;"/>
			</clipPath>
			<path style="clip-path:url(#SVGID_00000116932705690254138910000017470616021561648520_);fill:#191919;" d="M140.9,165.3
				c0,0,41-101.1-10.2-159.8c0,0-14-9.6-17.1,2.5c0,0-7.2,9.9-2.8,15.2c0,0-7.4,6.6-4.1,13.5c0,0-10.5,6.1-8,14.9
				c0,0-8.8,2.2-6.6,5.5c0,0-5.5,0.3-5.8,4.4c0,0-5,7.2-7.2,6.9c0,0-3.9,2.8-3.3,7.7c0,0-5.3,12.7-0.1,19.6l3.6,4.8
				c0,0-9.9-4.8-13.5-4.2l-7.7-1.4c0,0-8.8-1.9-8.5,1.9c0,0,2.2,4.1-7.2,5c0,0-10.1,2.7-6.1,7.4c0,0-1.9,5.2-3.9,5.5
				c0,0-8.8,6.9-6.9,10.5c0,0-2.5,5-4.1,4.1c0,0-5.5,1.4-1.9,12.4l0.8,12.4c0,0-2.8,8,3,13.5c0,0-1.1,12.7,9.9,15.4
				c0,0,31.4,13.5,74.4-9.1c0,0,17.1-7.4,24-5.5C131.8,168.3,139.9,168,140.9,165.3z"/>
		</g>
		<g>
			<defs>
				<path id="SVGID_00000070811935138601064970000006209648739050563712_" d="M140.9,165.3c0,0,41-101.1-10.2-159.8
					c0,0-14-9.6-17.1,2.5c0,0-7.2,9.9-2.8,15.2c0,0-7.4,6.6-4.1,13.5c0,0-10.5,6.1-8,14.9c0,0-8.8,2.2-6.6,5.5c0,0-5.5,0.3-5.8,4.4
					c0,0-5,7.2-7.2,6.9c0,0-3.9,2.8-3.3,7.7c0,0-5.3,12.7-0.1,19.6l3.6,4.8c0,0-9.9-4.8-13.5-4.2l-7.7-1.4c0,0-8.8-1.9-8.5,1.9
					c0,0,2.2,4.1-7.2,5c0,0-10.1,2.7-6.1,7.4c0,0-1.9,5.2-3.9,5.5c0,0-8.8,6.9-6.9,10.5c0,0-2.5,5-4.1,4.1c0,0-5.5,1.4-1.9,12.4
					l0.8,12.4c0,0-2.8,8,3,13.5c0,0-1.1,12.7,9.9,15.4c0,0,31.4,13.5,74.4-9.1c0,0,17.1-7.4,24-5.5
					C131.8,168.3,139.9,168,140.9,165.3z"/>
			</defs>
			<clipPath id="SVGID_00000042007090431205263690000004297798772541066894_">
				<use xlink:href="#SVGID_00000070811935138601064970000006209648739050563712_"  style="overflow:visible;"/>
			</clipPath>
			<path style="clip-path:url(#SVGID_00000042007090431205263690000004297798772541066894_);fill:#191919;" d="M117.2,172.4
				c0,0-22-1.7-49.9,7.2c0,0-24.2,5.8-47.7-12.4l4.1,19.7l8,2.6h26.4h22.9l18.5-8.3L117.2,172.4z"/>
		</g>
		<g>
			<path class="st1" d="M151,82.1c-6.1-47.6-38.4-69.6-38.7-69.9l-0.6,0.8c0.3,0.2,31.9,21.8,38.2,68.4c-6.3-3.7-7.9-8-7.9-8.1
				c-5.2-23.9-31.6-45-31.9-45.2l-0.6,0.8c0.3,0.2,26.4,21.1,31.5,44.7c0.1,0.3,2.4,6.6,12.7,10.8l0.4-0.9
				C152.9,83.1,151.9,82.6,151,82.1z"/>
			<path class="st1" d="M130.7,130c1.3-4.4-1.8-26.5-2.1-28.1l2.1-17.8l0-0.1l0,0l0.3-10.4l0-0.1l0-0.1
				c-1.7-6.7-25.8-34.6-26.8-35.7l-0.8,0.7c0.2,0.3,24.8,28.7,26.6,35.3l-0.2,8C124.5,72.4,99.2,52,98,51.1l-0.6,0.8
				c10.9,8.7,31.6,26.6,32.3,32.1l-2.1,17.9l0,0.1c1.1,7.4,2.7,21.4,2.3,26.5c-14.2-27.1-52.2-59.4-52.6-59.7l-0.6,0.8
				c0.4,0.3,39.4,33.5,53,60.7c2.1,11.9,4.9,29,5.6,34.8c-9.8-18.1-59.3-78.6-61.5-81.3L73,84.3c0.4,0.5,29,35.5,47.5,60.7
				c-5.8-1.6-19.3-8.2-20.4-8.8c-7.6-7.2-58.8-32.2-61-33.3l-0.4,0.9c0.5,0.3,53.5,26.1,60.8,33.1l0.1,0.1
				c0.7,0.3,16.5,8.2,21.8,9.1c6.2,8.5,11.1,15.7,13.3,20l-32.7-7.4c-3-3.3-17-7.5-18.5-8c-19.3-17.8-63.9-17.1-64.4-17.1l0,1
				c0.4,0,43.4-0.7,62.8,16.1l-62.1,3l0,1l63.3-3c1.1,0.3,14,4.3,17.6,7.3c-6.2,2.2-50.2,17.2-76.9,12.4l-0.2,1c3.7,0.7,7.7,1,12,1
				c27.9,0,63.6-12.7,66.1-13.6l33.5,7.6c0.2,0.2,0.3,0.3,0.5,0.3c0.1,0,0.1,0,0.2,0c0.6-0.2,0.9-0.3-2.2-19.2
				C132.4,139.8,130.9,131.1,130.7,130z"/>
		</g>
	</g>
	<path class="st7" d="M210.8,144.1c-2.9,0.4-18.5,9-23.2,11.6l-0.1,0.1c-4.4,2-22,5.5-26.5,6.3c-0.2-0.1-0.5-0.3-0.8-0.3
		c5.5-1.7,20.9-6.6,24.9-9l0.1-0.1c8.6-6.1,19.4-13.4,21.5-13.9c0.3-0.1,0.4-0.3,0.4-0.6c-0.1-0.3-0.3-0.4-0.6-0.4
		c-2.8,0.7-17.4,11-21.8,14.1l-0.1,0.1c-4.7,2.8-26.4,9.4-26.6,9.5c-0.1,0-0.1,0.1-0.2,0.1c-0.6,0-1.2,0.1-1.8,0.3
		c-1.7,0.6-3,1.7-3.7,3c-3.2-0.5-8.7,0.3-14.6,2.3c-6.7,2.3-12,5.5-13.7,8c-2,0.4-4.4,1-7,1.9c-3.6,1.2-6.6,2.6-8.5,3.8
		c-2.5-0.3-7.8,1.2-13.4,3.9c-7.4,3.5-12.8,7.8-11.9,9.5c0.8,1.8,7.5,0.4,15-3.1c5.5-2.6,9.8-5.6,11.4-7.7c2.2-0.2,5.5-0.9,9-2.2
		c2.6-0.9,4.9-1.9,6.7-2.8c2.9,1,9,0.3,15.7-2c5.9-2,10.7-4.7,12.9-7.1c1.3,0.6,3,0.8,4.7,0.2c2.9-1,4.6-3.5,3.9-5.6
		c-0.1-0.4-0.3-0.7-0.6-1c5.5-1.1,21.6-4.3,25.9-6.3l0.2-0.1c9.2-5.1,20.8-11.2,22.9-11.5c0.3,0,0.5-0.3,0.4-0.6
		C211.3,144.2,211.1,144,210.8,144.1z"/>
	<ellipse transform="matrix(0.8348 -0.5506 0.5506 0.8348 -4.1244 70.4207)" class="st8" cx="115.3" cy="42.1" rx="2.4" ry="4.8"/>
	<ellipse transform="matrix(0.8348 -0.5506 0.5506 0.8348 4.1187 70.8544)" class="st8" cx="120.1" cy="28.6" rx="2.4" ry="4.8"/>
	<ellipse transform="matrix(0.8348 -0.5506 0.5506 0.8348 11.6017 71.5162)" class="st8" cx="125" cy="16.4" rx="2.4" ry="4.8"/>
	
		<ellipse transform="matrix(0.9997 -2.515860e-02 2.515860e-02 0.9997 -1.1508 4.8549)" class="st8" cx="192.4" cy="48.2" rx="2.4" ry="4.8"/>
	
		<ellipse transform="matrix(0.9997 -2.515860e-02 2.515860e-02 0.9997 -0.9555 5.1161)" class="st8" cx="202.8" cy="40.5" rx="2.4" ry="4.8"/>
	
		<ellipse transform="matrix(0.9997 -2.515860e-02 2.515860e-02 0.9997 -0.7059 5.3667)" class="st8" cx="212.9" cy="30.7" rx="2.4" ry="4.8"/>
	<path class="st8" d="M125,5.6c0,0,22.5,22.1,27,49.8C152,55.4,148.3,22.5,125,5.6z"/>
	<path class="st8" d="M218.2,19.5c0,0,5.2,31.1-7.5,56.1C210.7,75.6,227.1,46.9,218.2,19.5z"/>
</g>
</svg>
