
<svg xmlns="http://www.w3.org/2000/svg" xmlns:xlink="http://www.w3.org/1999/xlink" width="339.6" height="257.249" viewBox="0 0 339.6 257.249">
  <defs>
    <clipPath id="clip-path" transform="translate(0 2.292)">
      <path d="M226.045,222.554,106.5,204.271a3.8,3.8,0,0,1-3.341-4.809l9.165-30a3.809,3.809,0,0,0,.027-1.946L61.689,112.193a3.8,3.8,0,0,1,4.4-4.65l190.33,28.8a3.8,3.8,0,0,1,2.54,5.686l-36.146,60.119a3.794,3.794,0,0,0,.046,3.988l6.712,10.6A3.8,3.8,0,0,1,226.045,222.554Z" fill="none"/>
    </clipPath>
    <clipPath id="clip-path-2" transform="translate(0 2.292)">
      <polygon points="220.017 45.57 180.1 32.612 194.811 3.945 223.665 25.839 220.017 45.57" fill="none"/>
    </clipPath>
    <clipPath id="clip-path-3" transform="translate(0 2.292)">
      <path d="M224.613,24.392a.874.874,0,0,0-.078-.278l.038-.1c-.2-5.438-2.225-15.966-14.179-21.5-16.581-7.676-25.47,4.267-27.085,8.586l-4.12,11.02a5.547,5.547,0,0,0,.2,3.917l-.357-.133h0a11.083,11.083,0,0,0,4.789,13.449l17.15,10.025a1.237,1.237,0,0,0,1.783-.635h0l6.021,5.68a4.3,4.3,0,0,0,5.35.389A23.925,23.925,0,0,0,220.3,47.6a.366.366,0,0,0,.03-.08,1.016,1.016,0,0,0,.266-.357C225.436,36.6,224.652,24.888,224.613,24.392Zm-34.876-4.238a3.11,3.11,0,1,1-4,1.824,3.11,3.11,0,0,1,4-1.824Zm28.447,23.5c-2.477-.926-5.991-2.962-9.245-7.715a26.965,26.965,0,0,1-4.273-15.528c.039-1.9,1.826-4.439,3.58-3.692,1.139.484,2.487,1.61,3.94,3.963a14.83,14.83,0,0,0,8.839,6.177,2.681,2.681,0,0,0,1.34.036,50.383,50.383,0,0,1-3.083,17.352,4.874,4.874,0,0,0-1.1-.593Z" fill="none"/>
    </clipPath>
    <clipPath id="clip-path-4" transform="translate(0 2.292)">
      <path d="M307.408,138.8l-54.6,20.325a4.671,4.671,0,0,1-3.852-.269l-55.411-29.984a4.67,4.67,0,0,1,1.416-8.708l43.265-7.59a4.673,4.673,0,0,0,3.509-2.814l5.2-43.678a4.671,4.671,0,0,1,8.08-.98l54.528,66.555A4.671,4.671,0,0,1,307.408,138.8Z" fill="none"/>
    </clipPath>
    <clipPath id="clip-path-5" transform="translate(0 2.292)">
      <path d="M303.535,124.072l-39.61-14.907a5.327,5.327,0,0,1-1.95-1.279,10.91,10.91,0,0,1-1.023-1.237,5.292,5.292,0,0,1-.757-1.5L246.622,62.581a2.957,2.957,0,0,1,1.748-2.291l1.51-.663a2.669,2.669,0,0,1,3.177.7l52.9,59.267A2.846,2.846,0,0,1,303.535,124.072Z" fill="none"/>
    </clipPath>
  </defs>
  <g id="Layer_2" data-name="Layer 2">
    <g id="Layer_1-2" data-name="Layer 1">
      <g id="Premium_Bike" data-name="Premium Bike">
        <path d="M226.045,222.554,106.5,204.271a3.8,3.8,0,0,1-3.341-4.809l9.165-30a3.809,3.809,0,0,0,.027-1.946L61.689,112.193a3.8,3.8,0,0,1,4.4-4.65l190.33,28.8a3.8,3.8,0,0,1,2.54,5.686l-36.146,60.119a3.794,3.794,0,0,0,.046,3.988l6.712,10.6A3.8,3.8,0,0,1,226.045,222.554Z" transform="translate(0 2.292)" fill="#b71313"/>
        <g clip-path="url(#clip-path)">
          <g opacity="0.36">
            <rect x="153.267" y="40.598" width="11.65" height="198.897" transform="translate(-5.221 276.219) rotate(-80.53)"/>
            <rect x="153.07" y="61.285" width="7.767" height="204.052" transform="translate(-29.956 293.547) rotate(-80.53)"/>
            <rect x="154.377" y="50.219" width="3.398" height="202.763" transform="translate(-19.137 282.897) rotate(-80.53)"/>
          </g>
          <g opacity="0.51">
            <path d="M216.79,198.185a16.431,16.431,0,0,0-10.878,4.1,7.745,7.745,0,0,0-9.031-5.9c0-.048.007-.094.007-.142a9.249,9.249,0,1,0-6.246,8.722,7.762,7.762,0,0,0,9.966,6.474,16.5,16.5,0,1,0,16.182-13.254Z" transform="translate(0 2.292)"/>
          </g>
        </g>
        <g>
          <ellipse cx="288.443" cy="206.417" rx="51.157" ry="50.832" fill="#32323f"/>
          <ellipse cx="288.443" cy="206.417" rx="49.786" ry="49.474" fill="#474757"/>
          <ellipse cx="288.443" cy="206.417" rx="37.454" ry="37.218"/>
          <ellipse cx="288.443" cy="206.417" rx="35.626" ry="35.404" fill="#fff"/>
          <ellipse cx="288.443" cy="206.417" rx="33.798" ry="33.59" fill="#ddd"/>
          <ellipse cx="288.443" cy="206.417" rx="21.008" ry="20.877" fill="#bac0d8"/>
          <ellipse cx="288.443" cy="206.417" rx="19.18" ry="19.063" fill="#acafbc"/>
        </g>
        <path d="M294.939,201.7l-21.88-54.508a7.039,7.039,0,0,0-9.154-3.91h0a7.038,7.038,0,0,0-3.91,9.154l16.475,41.044L222.7,176.935a7.038,7.038,0,0,0-4.14,13.454l66.957,20.6a9.984,9.984,0,0,0,5.51-.139h0A7.039,7.039,0,0,0,294.939,201.7Z" transform="translate(0 2.292)"/>
        <g>
          <ellipse cx="49.268" cy="197.335" rx="48.954" ry="49.268" transform="translate(-151.096 234.59) rotate(-85.88)" fill="#32323f"/>
          <ellipse cx="49.268" cy="197.335" rx="47.647" ry="47.947" transform="translate(-151.096 234.59) rotate(-85.88)" fill="#474757"/>
          <ellipse cx="49.268" cy="197.335" rx="35.844" ry="36.07" transform="translate(-151.096 234.59) rotate(-85.88)"/>
          <ellipse cx="49.268" cy="197.335" rx="34.096" ry="34.31" transform="translate(-151.096 234.59) rotate(-85.88)" fill="#fff"/>
          <ellipse cx="49.268" cy="197.335" rx="32.349" ry="32.549" transform="translate(-151.096 234.59) rotate(-85.88)" fill="#ddd"/>
          <ellipse cx="49.268" cy="197.335" rx="20.106" ry="20.233" transform="translate(-151.096 234.59) rotate(-85.88)" fill="#bac0d8"/>
          <ellipse cx="49.268" cy="197.335" rx="18.359" ry="18.472" transform="translate(-151.096 234.59) rotate(-85.88)" fill="#acafbc"/>
        </g>
        <path d="M133.48,190.94h0a7.039,7.039,0,0,0-7.572-6.462l-58.626,4.635,42.834-41.844a7.038,7.038,0,0,0,.117-9.953h0a7.039,7.039,0,0,0-9.954-.117L44.415,191.772a6.964,6.964,0,0,0-.744.867,7.036,7.036,0,0,0,5.494,12.027l77.853-6.155A7.039,7.039,0,0,0,133.48,190.94Z" transform="translate(0 2.292)"/>
        <path d="M41.99,142.981l-6.612,1.646a1.572,1.572,0,0,1-1.639-2.467L57.47,110.4a1.573,1.573,0,0,1,2.2-.318l3.691,2.758a1.573,1.573,0,0,1,.31,2.212L42.861,142.407A1.576,1.576,0,0,1,41.99,142.981Z" transform="translate(0 2.292)" fill="#8c1010"/>
        <path d="M117,141.645l-35.518-3.436a34.323,34.323,0,0,1-20.969-9.9L33.474,101.256a1.947,1.947,0,0,1,1.788-3.279l100.767,21.774-2.052,9.5A15.809,15.809,0,0,1,117,141.645Z" transform="translate(0 2.292)" fill="#ed1414"/>
        <path d="M154.218,136.733l-38.18-5.338c-9.685-1.355-16.935-9.122-16.781-17.98l.088-5.028a2.985,2.985,0,0,1,3.683-2.678l64.225,11.678a3.172,3.172,0,0,1,2.73,3.544l-1.141,6.273C167.694,133.518,161.251,137.717,154.218,136.733Z" transform="translate(0 2.292)" fill="#474757"/>
        <rect x="124.146" y="189.388" width="40.744" height="8.074" rx="4.037" transform="translate(133.575 -45.487) rotate(34.168)" fill="#474757"/>
        <rect x="122.122" y="186.344" width="52.425" height="8.235" rx="4.117" transform="translate(132.569 -48.142) rotate(34.168)" fill="#ddd"/>
        <g>
          <rect x="177.727" y="30.288" width="15.777" height="35.139" rx="7.888" transform="translate(71.912 -104.172) rotate(39.159)" fill="#ffbc00"/>
          <rect x="129.152" y="120.876" width="60.439" height="13.391" rx="6.695" transform="translate(65.951 -51.648) rotate(24.09)" fill="#ffbc00"/>
          <rect x="134.372" y="148.347" width="60.439" height="13.391" rx="6.695" transform="translate(390.704 156.113) rotate(136.402)" fill="#1b92db"/>
          <g>
            <path d="M164.126,121.31h0a7.457,7.457,0,0,1,7.457,7.457v59.973a0,0,0,0,1,0,0H156.669a0,0,0,0,1,0,0V128.768A7.457,7.457,0,0,1,164.126,121.31Z" transform="translate(163.213 -68.447) rotate(46.402)" fill="#e09c14"/>
            <rect x="164.336" y="128.994" width="3.096" height="60.656" rx="1.548" transform="translate(166.87 -68.386) rotate(46.402)" fill="#fff"/>
            <path d="M146.4,173.954c-5.528-3.635-12.472-2.835-15.511,1.785L150.905,188.9C153.943,184.281,151.924,177.589,146.4,173.954Z" transform="translate(0 2.292)" fill="#bf8216"/>
            <path d="M171.218,202.258c.034-.049.071-.1.1-.146,4.5-6.848.728-17.282-8.431-23.3s-20.234-5.352-24.737,1.5c-.033.05-.061.1-.093.153Z" transform="translate(0 2.292)" fill="#ffbc00"/>
            <rect x="124.927" y="187.045" width="51.853" height="3.218" rx="1.609" transform="matrix(0.836, 0.549, -0.549, 0.836, 128.446, -49.564)" fill="#a56d14"/>
            <path d="M169.209,197.513a.714.714,0,0,1-.275-.851c3.261-8.587-6.982-14.846-7.086-14.911a.715.715,0,1,1,.735-1.227c.114.067,11.37,6.951,7.688,16.646a.715.715,0,0,1-.922.415A.66.66,0,0,1,169.209,197.513Z" transform="translate(0 2.292)" fill="#fff"/>
          </g>
          <path d="M206.459,56.547l-35.4-17.484a3.587,3.587,0,0,0-4.935,1.568L145.282,58.294,124.656,87.026a19.139,19.139,0,0,0-4.511,26.688h0a19.139,19.139,0,0,0,26.688,4.51l31.143-35.318a5.3,5.3,0,0,0,1.462-1.567l27.8-19.063A3.586,3.586,0,0,0,206.459,56.547Z" transform="translate(0 2.292)" fill="#ffbc00"/>
          <circle cx="237.624" cy="117.811" r="7.318" fill="#d39c62"/>
          <path d="M197.965,98.484l1.609-33.795a10.114,10.114,0,1,0-20.168.51l3.692,37.512a7.778,7.778,0,0,0,6,6.819l42.4,9.708a4.833,4.833,0,0,0,5.364-2.475h0a4.833,4.833,0,0,0-2.824-6.844Z" transform="translate(0 2.292)" fill="#ffbc00"/>
          <g>
            <g clip-path="url(#clip-path-2)">
              <path d="M222.411,12.128,200.875,4.077C195.01,3.7,186.1,4.071,180.1,3.945v30.8l28.437,10.631c1.224.428,2.97.089,4.26.192,3.453,0,7.4,0,10.868,0V12.6Z" transform="translate(0 2.292)" fill="#aafff9"/>
            </g>
            <path d="M224.613,24.392a.874.874,0,0,0-.078-.278l.038-.1c-.2-5.438-2.225-15.966-14.179-21.5-16.581-7.676-25.47,4.267-27.085,8.586l-4.12,11.02c-.414,1.286-.939,1.24-.4,2.478l-.1.772-.2,1.542c-1.888,5.051.672,9.72,5.328,12.441l17.15,10.025a1.237,1.237,0,0,0,1.783-.635h0l6.021,5.68a4.3,4.3,0,0,0,5.35.389A23.925,23.925,0,0,0,220.3,47.6a.366.366,0,0,0,.03-.08,1.016,1.016,0,0,0,.266-.357C225.436,36.6,224.652,24.888,224.613,24.392Zm-34.876-4.238a3.11,3.11,0,1,1-4,1.824,3.11,3.11,0,0,1,4-1.824Zm28.447,23.5c-2.477-.926-5.991-2.962-9.245-7.715a26.965,26.965,0,0,1-4.273-15.528c.039-1.9,1.826-4.439,3.58-3.692,1.139.484,2.487,1.61,3.94,3.963a14.83,14.83,0,0,0,8.839,6.177,2.681,2.681,0,0,0,1.34.036,50.383,50.383,0,0,1-3.083,17.352,4.874,4.874,0,0,0-1.1-.593Z" transform="translate(0 2.292)" fill="#e09c14"/>
            <g clip-path="url(#clip-path-3)">
              <polygon points="188.636 0 183.296 4.369 195.347 22.583 168.717 93.817 174.704 96.055 202.375 22.039 188.636 0" fill="#8c1010"/>
            </g>
          </g>
          <path d="M170.621,42.659l-.3-.335a1.057,1.057,0,0,0-1.493-.088L148.715,60.112a1.033,1.033,0,0,0-.524.385L133.118,82.826a1.056,1.056,0,0,0,.285,1.467l.371.251a1.058,1.058,0,0,0,1.468-.284L150.135,62.2a1.035,1.035,0,0,0,.26-.152l20.138-17.895A1.058,1.058,0,0,0,170.621,42.659Z" transform="translate(0 2.292)" fill="#fff"/>
        </g>
        <path d="M307.408,138.8l-54.6,20.325a4.671,4.671,0,0,1-3.852-.269l-55.411-29.984a4.67,4.67,0,0,1,1.416-8.708l43.265-7.59a4.673,4.673,0,0,0,3.509-2.814l5.2-43.678a4.671,4.671,0,0,1,8.08-.98l54.528,66.555A4.671,4.671,0,0,1,307.408,138.8Z" transform="translate(0 2.292)" fill="#ed1414"/>
        <g clip-path="url(#clip-path-4)">
          <g clip-path="url(#clip-path-5)">
            <path d="M306.559,59.124H246.622v64.985h60.761V59.124Z" transform="translate(0 2.292)" fill="#aafff9"/>
          </g>
        </g>
      </g>
    </g>
  </g>
</svg>
