<svg version="1.1" id="Layer_1" xmlns="http://www.w3.org/2000/svg" xmlns:xlink="http://www.w3.org/1999/xlink" x="0px" y="0px"
	 viewBox="0 0 214.1 74.1" style="enable-background:new 0 0 214.1 74.1;" xml:space="preserve">
<style type="text/css">
	.st0{opacity:0.5;}
	.st1{fill:#271E1F;}
	.st2{fill:#3A2E30;}
	.st3{clip-path:url(#SVGID_00000150103533971990262570000012337698804018344857_);fill:#2B2224;}
	.st4{clip-path:url(#SVGID_00000150103533971990262570000012337698804018344857_);fill:#564A4D;}
	.st5{clip-path:url(#SVGID_00000150103533971990262570000012337698804018344857_);fill:#3A2E30;}
	.st6{fill:#1B1517;}
	.st7{fill:#070606;}
	.st8{fill:#9E9094;}
</style>
<g id="Layer_9" class="st0">
</g>
<path class="st1" d="M111.3,38.1c0,0,3.7,15.7,1.5,20.4l-1.5,4.2l13.2,4.5l-3.3,4.6l-20.6-4.3l-0.1-10.8
	C100.5,56.7,93.6,42.9,111.3,38.1z"/>
<path class="st2" d="M163.8,23.4c3.8-1.7,6.8-5,10.5-7c6-3.3,13.4-2.8,19.8-0.3s11.9,6.7,17.3,10.8c0.2,0.2,0.5,0.4,0.6,0.6
	c0.3,0.5,0.2,1,0.1,1.5c-1.1,4.5-5.6,7.5-10.1,8.9c-4.5,1.3-9.3,1.5-13.8,2.6c-11.7,2.9-21,12.4-32.8,15.3c-2.5,0.6-5.2,0.9-7.5,2.1
	c-4.6,2.3-7.3,7.5-12.1,9.7c1.4,0,2.8-0.1,4,0.6c1.2,0.6,2,2.2,1.4,3.4c-0.6,1-1.9,1.4-3,1.5c-5.8,0.9-11.7,1.2-17.5,0.8
	c-0.7,0-1.5-0.1-2-0.7c-0.6-0.7-0.4-1.8-0.1-2.7c2.6-8.2,5.3-16.3,7.9-24.5c-4.8,1.2-10.1,0.4-14.4-2c-1.7,5.4-3.5,10.9-5.2,16.3
	c-0.2,0.7-0.5,1.6-0.1,2.3c0.3,0.6,0.9,0.9,1.4,1.2c3,1.5,6.2,2.5,9.4,2.9c1.3,2.1-0.4,5.1-2.7,5.9s-4.9,0.2-7.3-0.5
	c-3.7-1-7.6-2.2-9.9-5.2c-1.3-1.9-1.9-4.2-2.3-6.4c-1.1-5.1-2.2-10.2-3.3-15.2c-0.2-1-0.4-2-1.1-2.8c-0.6-0.7-1.4-1.1-2.2-1.5
	c-3-1.4-6.1-2.8-9.4-3c-2.6-0.1-5.2,0.7-7.8,1.3C61,41.9,50,43.1,39.1,42.7C27,42.3,13.6,39.1,7.2,28.9c-3.4-5.4-4.3-12.1-4-18.5
	c1-1.1,2.6,0.7,3,2.1c1,4,0.8,8.4,2.9,12c2,3.5,5.8,5.6,9.6,7.1c19.9,7.8,43,1.9,61.1-9.7c7.1-4.5,13.6-9.9,21-14s15.8-6.8,24.1-5.5
	c8.5,1.3,15.5,6.6,21.6,12.3C151.3,19.3,156.1,26.9,163.8,23.4z"/>
<g>
	<defs>
		<path id="SVGID_1_" d="M163.8,23.4c3.8-1.7,6.8-5,10.5-7c6-3.3,13.4-2.8,19.8-0.3s11.9,6.7,17.3,10.8c0.2,0.2,0.5,0.4,0.6,0.6
			c0.3,0.5,0.2,1,0.1,1.5c-1.1,4.5-5.6,7.5-10.1,8.9c-4.5,1.3-9.3,1.5-13.8,2.6c-11.7,2.9-21,12.4-32.8,15.3
			c-2.5,0.6-5.2,0.9-7.5,2.1c-4.6,2.3-7.3,7.5-12.1,9.7c1.4,0,2.8-0.1,4,0.6c1.2,0.6,2,2.2,1.4,3.4c-0.6,1-1.9,1.4-3,1.5
			c-5.8,0.9-11.7,1.2-17.5,0.8c-0.7,0-1.5-0.1-2-0.7c-0.6-0.7-0.4-1.8-0.1-2.7c2.6-8.2,5.3-16.3,7.9-24.5c-4.8,1.2-10.1,0.4-14.4-2
			c-1.7,5.4-3.5,10.9-5.2,16.3c-0.2,0.7-0.5,1.6-0.1,2.3c0.3,0.6,0.9,0.9,1.4,1.2c3,1.5,6.2,2.5,9.4,2.9c1.3,2.1-0.4,5.1-2.7,5.9
			s-4.9,0.2-7.3-0.5c-3.7-1-7.6-2.2-9.9-5.2c-1.3-1.9-1.9-4.2-2.3-6.4c-1.1-5.1-2.2-10.2-3.3-15.2c-0.2-1-0.4-2-1.1-2.8
			c-0.6-0.7-1.4-1.1-2.2-1.5c-3-1.4-6.1-2.8-9.4-3c-2.6-0.1-5.2,0.7-7.8,1.3C61,41.9,50,43.1,39.1,42.7C27,42.3,13.6,39.1,7.2,28.9
			c-3.4-5.4-4.3-12.1-4-18.5c1-1.1,2.6,0.7,3,2.1c1,4,0.8,8.4,2.9,12c2,3.5,5.8,5.6,9.6,7.1c19.9,7.8,43,1.9,61.1-9.7
			c7.1-4.5,13.6-9.9,21-14s15.8-6.8,24.1-5.5c8.5,1.3,15.5,6.6,21.6,12.3C151.3,19.3,156.1,26.9,163.8,23.4z"/>
	</defs>
	<clipPath id="SVGID_00000059270553549675754600000005249734294621187464_">
		<use xlink:href="#SVGID_1_"  style="overflow:visible;"/>
	</clipPath>
	<path style="clip-path:url(#SVGID_00000059270553549675754600000005249734294621187464_);fill:#2B2224;" d="M136.5,63.7
		c-1.5,1.4-3.1,2.7-4.9,3.8c-3.7,2.1-8.2,2.6-12.2,4.2c-0.8,0.3-1.6,0.8-1.7,1.6c-0.1,0.8,0.5,1.4,1.1,1.8c2.4,1.8,5.6,2.2,8.6,2.2
		c5.9-0.1,11.9-1.9,16.3-5.8c0.6-0.6,1.2-1.2,1.5-1.9s0.2-1.8-0.5-2.3c-0.8-0.6-2.4-0.7-2.4-1.7c0-0.3,0.2-0.6,0.4-0.8
		c0.8-1.1,1.8-2,2.2-3.3c0.6-1.9-0.7-3.7-2.5-2.8C140.2,59.5,138.2,62.1,136.5,63.7z"/>
	<path style="clip-path:url(#SVGID_00000059270553549675754600000005249734294621187464_);fill:#564A4D;" d="M202.8,28.2
		c-1.4,0-2.8,0.2-4-0.4c-1-0.4-1.8-1.3-2.9-1.8c-1.4-0.6-3.1-0.3-4.5,0.3c-1.4,0.6-2.7,1.5-4.1,2.1c-3.1,1.4-6.7,1.6-10.1,1.5
		c-3.4-0.1-7-0.3-10.1,1.2c-2.2,1.1-4,2.9-5.7,4.8c-1.1,1.2-2.2,2.5-2.9,4c-0.5,1-0.8,2.2-1.3,3.2c-1.6,3-5,4.5-8.1,6
		c-3.1,1.5-6.4,3.5-7.3,6.8c-0.3,1.1-0.2,2.4,0.4,3.4c1.3,1.9,4.2,1.8,6.4,1.2c6.6-1.5,12.8-4.1,19-6.7c2.4-1,4.8-2,7-3.4
		c3.1-2,5.8-4.7,9.3-5.7c1.7-0.5,3.6-0.5,5.4-0.7c6.5-0.8,12.3-3.9,17.7-7.4c1.8-1.2,5.9-3.1,4.2-5.7
		C209.8,28.5,205.2,28.2,202.8,28.2z"/>
	<path style="clip-path:url(#SVGID_00000059270553549675754600000005249734294621187464_);fill:#3A2E30;" d="M210.2,32.6
		c0,0-3.9,2.8-8.4,2.1c0,0,3,1.2,8.8-1l0.6-1.1L210.2,32.6z"/>
</g>
<path class="st2" d="M118.7,66.6c1.9,0.2,3.9,0.4,5.8,0.5c1.5,0.1,3.1,0.3,4.5,1.1c1.3,0.8,2.2,2.6,1.6,4c-0.8,1.8-3.4,2-5.4,1.8
	c-5.8-0.5-11.7-1.1-17.5-2c-1.5-0.2-3-0.5-4.3-1.1c-4.1-1.9-3.9-8.2,1-8.1c2,0,4.1,1.3,5.9,2C113.1,65.9,115.8,66.3,118.7,66.6z"/>
<path class="st1" d="M181.1,27.8c0.8,0.3,1.7,0.1,2.3-0.5c0.7-0.8,1.4-1.6,1.7-2.6c0.5-1.4,0.3-3.3-0.9-4.2
	c-1.1-0.8-2.6-0.7-3.9-0.5c-0.8,0.1-1.5,0.2-2.2,0.6c-1.2,0.8-1.5,2.5-1.1,3.8c0.5,1.3,1.6,2.3,2.9,3L181.1,27.8z"/>
<path class="st6" d="M182.2,27.8c0.7,0.3,1.4,0.1,1.9-0.4c0.6-0.6,1.1-1.3,1.4-2.1c0.4-1.2,0.3-2.7-0.7-3.4
	c-0.9-0.7-2.1-0.6-3.2-0.4c-0.6,0.1-1.3,0.2-1.8,0.5c-1,0.6-1.3,2-0.9,3.1s1.3,1.9,2.4,2.4L182.2,27.8z"/>
<path class="st7" d="M199.4,26.3c0.7,0.1,1.5-0.1,2.1-0.6c0.1-0.1,0.2-0.2,0.2-0.3c0.1-0.4,0.2-0.9,0.1-1.3c-0.1-0.5-0.5-1-1-1
	c-0.4,0-0.8,0.2-1.1,0.5c-0.5,0.4-1.1,0.8-1.1,1.5c-0.1,0.6,0.1,0.6,0.6,1L199.4,26.3z"/>
<path class="st1" d="M212,27.2c-0.3,0-0.5,0-0.8,0.1c-0.7,1.1-1.1,2.4-1,3.7c0.8,0.3,1.7-0.3,2-1.1c0.3-0.8,0.2-1.6,0-2.5"/>
<path class="st7" d="M183.4,23.3c-0.1-0.2-0.3-0.4-0.5-0.5c-0.3-0.2-0.6-0.3-0.9-0.3c-0.6-0.1-1.3-0.1-1.8,0.4
	c-0.5,0.6-0.4,1.4-0.2,2.2c0.1,0.4,0.3,0.7,0.5,1c0.2,0.3,0.5,0.6,0.8,0.9c0.9,0.8,2.1,1.9,2.7,0.2C184.4,25.9,184,24.3,183.4,23.3z
	"/>
<path class="st8" d="M200.6,23.9c-0.3,0.3-0.4,0.3-0.9,0.4c0.1-0.3,0.7-0.6,1-0.7c0,0,0,0.1,0,0.2C200.6,23.8,200.6,23.9,200.6,23.9
	z"/>
</svg>
