<svg version="1.1" id="Layer_1" xmlns="http://www.w3.org/2000/svg" xmlns:xlink="http://www.w3.org/1999/xlink" x="0px" y="0px"
	 viewBox="0 0 673 262.2" style="enable-background:new 0 0 673 262.2;" xml:space="preserve">
<style type="text/css">
	.st0{fill:url(#SVGID_1_);}
	.st1{fill:#00674C;}
	.st2{display:none;fill:#FF6661;}
	.st3{clip-path:url(#SVGID_00000162332509900084976090000009004382444919779471_);fill:#EC293F;}
	.st4{fill:#4E514E;}
	.st5{fill:#32323F;}
	.st6{fill:#474757;}
	.st7{fill:#FFFFFF;}
	.st8{fill:#DDDDDD;}
	.st9{fill:#BAC0D8;}
	.st10{fill:#ACAFBC;}
	.st11{fill:url(#SVGID_00000121242340704201564560000017623739246413273009_);}
	.st12{fill:url(#SVGID_00000047769704056637203860000004661361406547093180_);}
	.st13{opacity:0.25;enable-background:new    ;}
</style>
<g>
	
		<radialGradient id="SVGID_1_" cx="51.55" cy="2631.5105" r="30.3117" gradientTransform="matrix(1 0 0 0.9937 0 -2567.2822)" gradientUnits="userSpaceOnUse">
		<stop  offset="0" style="stop-color:#DCDCDC"/>
		<stop  offset="0.6884" style="stop-color:#A3A3A3"/>
		<stop  offset="0.9996" style="stop-color:#878787"/>
	</radialGradient>
	<polygon class="st0" points="60.3,71.6 16.1,23.7 60.3,23.7 87,71.6 	"/>
	<path class="st1" d="M71-0.2c22.7,19.9-5.4,35.9-5.4,35.9s-36.1,0-50.8-4S0.1-0.2,0.1-0.2H71z"/>
	<path class="st2" d="M399.1,51.7h55c43.1,0,78,34.9,78,78v28c5.5,0,10,4.5,10,10s-4.5,10-10,10h-355l-128.5-18
		c-5.2,0-9.5-4.3-9.5-9.5s4.3-9.5,9.5-9.5l-0.5-74.5c0-12.4,10.1-22.5,22.5-22.5h82.5l79-40c0,0,8-4,18-5s80,2,80,2s22-3,34,16
		s36,36,36,36"/>
	<path class="st1" d="M481.7,70.3h73.6c57.6,0,104.4,46.4,104.4,103.7v37.2c7.4,0,13.4,6,13.4,13.3s-6,13.3-13.4,13.3h-475
		L12.8,213.9c-7,0-12.7-5.7-12.7-12.6s5.7-12.6,12.7-12.6l-0.7-99.1c0-16.5,13.5-29.9,30.1-29.9h110.4L258.3,6.4
		c0,0,10.7-5.3,24.1-6.6s107,2.7,107,2.7s29.4-4,45.5,21.3s48.2,47.9,48.2,47.9"/>
	<g>
		<g>
			<g>
				<g>
					<g>
						<g>
							<defs>
								<path id="SVGID_00000054967985882741218300000002553989185625708953_" d="M481.7,70.3h73.6c57.6,0,104.4,46.4,104.4,103.7
									v37.2c7.4,0,13.4,6,13.4,13.3s-6,13.3-13.4,13.3h-475L12.8,213.9c-7,0-12.7-5.7-12.7-12.6s5.7-12.6,12.7-12.6l-0.7-99.1
									c0-16.5,13.5-29.9,30.1-29.9h110.4L258.3,6.4c0,0,10.7-5.3,24.1-6.6s107,2.7,107,2.7s29.4-4,45.5,21.3s48.2,47.9,48.2,47.9"
									/>
							</defs>
							<clipPath id="SVGID_00000150794348503786740780000013579878307425624494_">
								<use xlink:href="#SVGID_00000054967985882741218300000002553989185625708953_"  style="overflow:visible;"/>
							</clipPath>
						</g>
						<g>
							<defs>
								<path id="SVGID_00000160880814875249525200000010933005771596066206_" d="M481.7,70.3h73.6c57.6,0,104.4,46.4,104.4,103.7
									v37.2c7.4,0,13.4,6,13.4,13.3s-6,13.3-13.4,13.3h-475L12.8,213.9c-7,0-12.7-5.7-12.7-12.6s5.7-12.6,12.7-12.6l-0.7-99.1
									c0-16.5,13.5-29.9,30.1-29.9h110.4L258.3,6.4c0,0,10.7-5.3,24.1-6.6s107,2.7,107,2.7s29.4-4,45.5,21.3s48.2,47.9,48.2,47.9"
									/>
							</defs>
							<clipPath id="SVGID_00000001642816347396314860000014259466574246549180_">
								<use xlink:href="#SVGID_00000160880814875249525200000010933005771596066206_"  style="overflow:visible;"/>
							</clipPath>
							
								<circle style="clip-path:url(#SVGID_00000001642816347396314860000014259466574246549180_);fill:#EC293F;" cx="281" cy="148.3" r="60.5"/>
						</g>
					</g>
				</g>
			</g>
		</g>
	</g>
	<path class="st4" d="M659.7,211.2c7.4,0,13.4,6,13.4,13.3s-6,13.3-13.4,13.3h-475L12.8,213.9c-7,0-12.7-5.7-12.7-12.6
		s5.7-12.6,12.7-12.6l-0.7-59.8l28.1,26.6l-1.3,33.2v8l141.8,18.6L659.7,211.2z"/>
	<g>
		<ellipse class="st5" cx="130.3" cy="188.3" rx="73.9" ry="73.4"/>
		<ellipse class="st6" cx="130.3" cy="188.3" rx="71.9" ry="71.4"/>
		<ellipse cx="130.3" cy="188.3" rx="54.1" ry="53.7"/>
		<ellipse class="st7" cx="130.3" cy="188.3" rx="51.4" ry="51.1"/>
		<ellipse class="st8" cx="130.3" cy="188.3" rx="48.8" ry="48.5"/>
		<ellipse class="st9" cx="130.3" cy="188.3" rx="30.3" ry="30.2"/>
		<ellipse class="st10" cx="130.3" cy="188.3" rx="27.7" ry="27.5"/>
	</g>
	<g>
		<ellipse class="st5" cx="545.1" cy="188.3" rx="73.9" ry="73.4"/>
		<ellipse class="st6" cx="545.1" cy="188.3" rx="71.9" ry="71.4"/>
		<ellipse cx="545.1" cy="188.3" rx="54.1" ry="53.7"/>
		<ellipse class="st7" cx="545.1" cy="188.3" rx="51.4" ry="51.1"/>
		<ellipse class="st8" cx="545.1" cy="188.3" rx="48.8" ry="48.5"/>
		<ellipse class="st9" cx="545.1" cy="188.3" rx="30.3" ry="30.2"/>
		<ellipse class="st10" cx="545.1" cy="188.3" rx="27.7" ry="27.5"/>
	</g>
	
		<linearGradient id="SVGID_00000172412008258376866680000011321100587595824308_" gradientUnits="userSpaceOnUse" x1="258.8908" y1="2625.311" x2="424.2" y2="2625.311" gradientTransform="matrix(1 0 0 1 0 -2568)">
		<stop  offset="0" style="stop-color:#C9E7F9"/>
		<stop  offset="0.9996" style="stop-color:#AAFFF9"/>
	</linearGradient>
	<path style="fill:url(#SVGID_00000172412008258376866680000011321100587595824308_);" d="M424.2,91.5
		c-38.8-70.5-58.9-67.8-58.9-67.8s-50.8-1.3-66.9,0c-16,1.4-21.4,10.7-21.4,10.7L261,57c0,0-10.7,13.3,16.1,16
		C298.4,75,424.2,91.5,424.2,91.5z"/>
	
		<linearGradient id="SVGID_00000144325571382681118140000015521859313516830107_" gradientUnits="userSpaceOnUse" x1="408.6445" y1="2626.25" x2="483.1" y2="2626.25" gradientTransform="matrix(1 0 0 1 0 -2568)">
		<stop  offset="0" style="stop-color:#C9E7F9"/>
		<stop  offset="0.9996" style="stop-color:#AAFFF9"/>
	</linearGradient>
	<path style="fill:url(#SVGID_00000144325571382681118140000015521859313516830107_);" d="M434.9,23.7l48.2,46.5l-26.8,22.6
		L412.2,37c0,0-8-8,0-12L434.9,23.7z"/>
</g>
<g class="st13">
	<path class="st7" d="M659.7,174c0,0-38.8-96-177.7-54.7L12.4,91.9C12.5,74,23.5,59.7,40,59.8l112.6-0.1
		c18.5,0.1,300.1,36.2,300.1,36.2l30.8-25.6l72.7,0.3C556.2,70.5,650.7,68.8,659.7,174z"/>
</g>
</svg>
