<svg version="1.1" xmlns="http://www.w3.org/2000/svg" xmlns:xlink="http://www.w3.org/1999/xlink" x="0px" y="0px"
	 viewBox="0 0 282.5 135.7" style="enable-background:new 0 0 282.5 135.7;" xml:space="preserve">
<style type="text/css">
	.st0{fill:#DDDDDD;}
	.st1{fill:#9B9B9B;}
	.st2{fill:#FFFFFF;}
	.st3{fill:#191919;}
	.st4{opacity:0.42;fill:#9B9B9B;}
	.st5{fill:#931A1D;}
	.st6{fill:#AE1F23;}
	.st7{fill:#4A494A;}
</style>
<g id="Layer_1">
	<g id="Layer_2">
	</g>
</g>
<g id="Layer_3">
</g>
<g id="Layer_4">
	<g>
		<g>
			<path class="st0" d="M21.3,63c0,0,3,26.7-1.8,31.5c0,0-9.3,10.7-14.8,10.3c0,0,9.3,21,16.5,23.4c0,0,13.8,5.4,21.4-2.3
				c0,0-1.4-4.2-8.6-5.3c0,0-1-2.8,6.2-6.2c0,0,16.2-11,16.2-14.8l7.2-22C63.5,77.6,57.5,39.2,21.3,63z"/>
			<path class="st0" d="M147.2,64.9c0,0-19.7,29.6-20,45.5c0,0,3.8,14.5,10,16.5c0,0,18.9,3.8,33.1,0c0,0,2.4-4.8-9-6.5l-3.8-4.1
				c0,0,9.7-19.1,13-24.4l17.4-29.4C187.8,62.4,189.2,51.8,147.2,64.9z"/>
			<polygon class="st1" points="131.7,93.5 152.7,90 163.4,104.8 170.4,91.8 161.4,69.4 144.3,69.4 			"/>
			<path class="st1" d="M19.4,94.5c0,0,21.1,10.3,25.5,16.5l9.8-6.2l-2.9-27.4l-22.1-9.9l-7.6,13.1L19.4,94.5z"/>
			<path class="st2" d="M261.5,34.8c-1-3.1-5.2-5.9-5.2-5.9c-12.1-7.9-34.4-9.3-34.4-9.3c-10.3,0.3-38.6-10-38.6-10
				c-13.8-7.9-22.7-3.1-22.7-3.1c-2.1,2.8-15.6,4.1-15.6,4.1c-21.5,6.9-59.8-5.2-59.8-5.2C45.2,0.7,26.6,33,26.6,33
				c-3.5,6.9-5.5,13.8-6.5,20.3l0,0c0,0-4.1,18,0.7,29.3c0,0,6.9,15.5,24.8,20.7l23.1,25.1c0,0,28.9,3.8,41.7-1.7
				c0,0-2.4-5.9-9.6-4.8c0,0-3.4,1.4-5.2-2.4c0,0-8.3-16.5-6-27.2c7.5,4.2,16.4,2.8,16.4,2.8c20.7-0.7,49.9-15.5,49.9-15.5l20.3,40
				c-2.1,1-1.4,6.2-1.4,6.2c1.7,1.9,10.1,2.5,15,2.7c2.1,0.1,4.1,0.3,6.1,0.7c12.3,2.8,19.5-2.4,19.5-2.4c-1.4-5.2-5.5-4.5-5.5-4.5
				c-2.8,0-7.9-3.8-7.9-3.8c-6.5-9-13.1-36.5-13.1-36.5c-1.7-5.9,1.7-7.2,1.7-7.2c7.9,1.4,26.5-9.6,26.5-9.6c1.4-2.8,10-6.2,10-6.2
				c5.9-1.4,40.6-7.9,40.6-7.9c8.3-0.3,8.3-10.7,8.3-10.7C273.9,38.2,261.5,34.8,261.5,34.8z"/>
			<path class="st3" d="M248.5,34.2c0,0,1.8-3.4,5.1-0.5c0,0-0.4,2-1.5,2C252,35.8,249.6,36.5,248.5,34.2z"/>
			<path class="st3" d="M274.3,38.8c0,0-2.1,0.6-1.2,4.1c0,0,0.8,2.1,2,2.4c0,0,2.4-4.2,2.4-5.1C277.4,40.3,276.2,38.9,274.3,38.8z"
				/>
			<path class="st3" d="M270.4,50.4c0,0-5.7,0-9.4-2.1c0,0,2.6,2.4,6.7,2.6C267.7,51,270.1,50.8,270.4,50.4z"/>
			<path class="st4" d="M216,50.5c0,0-2.3-8,1-15c0,0-4.1-2.3-2.8-8.4c0,0,1.8-4.6,6.5-2.1c0,0,2-4.5,6.2-4.9c0,0-1.9-0.3-4.6-0.5
				c-1.6-0.1-1,0.1-5-0.3c-1.7-0.2-3.4-0.7-4.4-0.7C213,18.5,201.7,28.3,216,50.5z"/>
			<path class="st4" d="M219.7,32.8c0,0,1.2-3.7,2.1-4.5c0,0-3.7-2.1-4.8,0C217,28.4,215.9,32.7,219.7,32.8z"/>
			<path class="st4" d="M172.6,30.1c0,0,18.1,16.2,12.7,34.2C185.2,64.4,203.3,46.9,172.6,30.1z"/>
			<path class="st4" d="M71.4,50.5c0,0,16.3,10.3,15.2,25.1C86.5,75.6,94.9,53.9,71.4,50.5z"/>
			<path class="st4" d="M68.6,128.4c0,0,25.9-6.7,41.7-1.7C110.3,126.7,98,134.5,68.6,128.4z"/>
			<path class="st5" d="M215,66.2c0,0-7.2,17.5-0.9,25.2c0,0-5.9,5.7-11.2,4.2c0,0-7.2-8.9-2-22.8C206.1,59,215,66.2,215,66.2z"/>
			<path class="st4" d="M174.7,125.7c0,0,10.9-0.7,40.6,1c0,0-1.7,2.6-11.6,3.4c-3.6,0.3-7-0.6-11.9-1.3c-6.4-0.8-11.5-0.9-14.1-1.7
				C174.7,126.2,175.4,126.5,174.7,125.7z"/>
			<path class="st6" d="M186.8,10.9c0,0,8.3-1.7,17.1,5.4c0,0-8,30.7,11.1,50c0,0-4.8,7.1-14.1,6.6
				C200.9,72.8,176.3,52.5,186.8,10.9z"/>
			<path class="st6" d="M215,66.2c0,0-4.6,20-14.1,22.9c0,0-6.7,1.1-7.5-4.1c0,0,7.3-8.5,7.5-12.2C200.9,72.8,209.2,71.7,215,66.2z"
				/>
			<path class="st5" d="M200.9,72.8c0,0,8-2.1,14.1-6.6C215,66.2,210.4,74.7,200.9,72.8z"/>
		</g>
		<path class="st7" d="M77.1,5c2.6,0,5.2,0.2,8,0.5c0,0,23.2,7.3,43.6,7.3c5.8,0,11.4-0.6,16.2-2.1c0,0,13.5-1.4,15.6-4.1
			c0,0,2.7-1.5,7.4-1.5c3.9,0,9.1,1,15.3,4.6c0,0,1.3,0.5,3.5,1.2c0,0,0.8-0.2,2.3-0.2c3.1,0,8.8,0.8,14.8,5.6
			c3.1,0.9,6.2,1.7,9.1,2.3c1,0,2.7,0.5,4.4,0.7c4.1,0.4,3.5,0.2,5,0.3c2.6,0.2,4.6,0.5,4.6,0.5c0,0,0,0,0,0
			c7.3,0.9,20.9,3.2,29.4,8.8c0,0,4.1,2.8,5.2,5.9c0,0,8.3,2.3,12.4,4.3c0.2-0.1,0.4-0.2,0.4-0.2c1.9,0.1,3.2,1.4,3.2,1.4
			c0,0.9-2.4,5.1-2.4,5.1c0,0,0,0-0.1,0c-0.8,2-2.1,4.1-4.6,5.1c-0.3,0.4-2.7,0.6-2.7,0.6c0,0,0,0-0.1,0c-1,0.2-34.8,6.6-40.6,7.9
			c0,0-8.6,3.4-10,6.2c0,0-0.8,0.5-2.1,1.2c0,0,0,0,0,0c0,0-0.8,3.4-2.4,7.7c-1.3,5.7-2.1,13.2,1.5,17.5c0,0-4.6,4.5-9.4,4.5
			c-0.6,0-1.2-0.1-1.8-0.2c0,0-1.9-2.3-3-6.4c-0.1,0-0.3,0-0.4,0c-2,0-5.4-0.6-6-4.2c0,0,4.6-5.3,6.6-9.4c0.3-0.9,0.6-1.9,0.9-2.8
			c-3.2,1.2-6.4,2-8.9,2c-0.5,0-1,0-1.5-0.1c0,0-3.4,1.4-1.7,7.2c0,0,6.5,27.6,13.1,36.5c0,0,5.2,3.8,7.9,3.8c0,0,0.2,0,0.5,0
			c1.1,0,3.9,0.4,5,4.5c0,0-1.7,2.6-11.6,3.4c-0.5,0-1,0.1-1.4,0.1c-3.1,0-6.2-0.8-10.5-1.3c-6.4-0.8-11.5-0.9-14.1-1.7
			c-2.9-0.9-2.3-0.7-3-1.5c0,0-0.7-5.2,1.4-6.2l-10-19.6l-2.7,5c-3.1,5.9-5.9,11.4-5.9,11.4l3.8,4.1c11.4,1.7,9,6.5,9,6.5
			c-4.7,1.3-9.9,1.7-14.8,1.7c-9.8,0-18.2-1.7-18.2-1.7c-6.2-2.1-10-16.5-10-16.5c0.1-4.8,2-10.8,4.5-16.9l0,0l0,0
			c0.7-1.6,1.3-3.1,2.1-4.7c-9,3.2-19.2,6-28,6.3c0,0-1.5,0.2-3.7,0.2c-3.3,0-8.2-0.5-12.6-3c-2.2,10.7,6,27.2,6,27.2
			c1,2.2,2.6,2.7,3.7,2.7c0.8,0,1.4-0.2,1.4-0.2c0.6-0.1,1.1-0.1,1.7-0.1c5.9,0,8,4.9,8,4.9s-6.4,4-20.9,4c-5.7,0-12.5-0.6-20.8-2.3
			l-18.8-20.5l-4.8,3c-2.7,2-4.8,3.5-4.8,3.5c-7.2,3.4-6.2,6.2-6.2,6.2c7.2,1,8.6,5.3,8.6,5.3c-3.2,3.2-7.4,4.1-11.2,4.1
			c-5.4,0-10.1-1.8-10.1-1.8c-7.2-2.4-16.5-23.4-16.5-23.4c0.1,0,0.2,0,0.3,0c5.5,0,14.5-10.3,14.5-10.3L21.5,84
			c-0.5-0.9-0.7-1.4-0.7-1.4c-4.8-11.4-0.7-29.3-0.7-29.3l0,0c1.1-6.4,3-13.4,6.5-20.3C26.6,33,42.7,5,77.1,5 M77.1,3
			C77.1,3,77.1,3,77.1,3c-18.4,0-31.6,7.9-39.5,14.5C29.2,24.6,25,31.7,24.9,32c0,0,0,0.1,0,0.1c-3.2,6.4-5.5,13.3-6.7,20.7
			c-0.1,0.5-0.3,1.4-0.6,3.1c-0.3,1.7-0.7,4.5-0.9,7.6c-0.6,8.2,0.2,14.8,2.3,19.9c0,0.1,0.2,0.4,0.5,1l-1.8,9.2
			c-3.3,3.7-9.4,9.3-12.7,9.3c0,0-0.1,0-0.1,0c0,0-0.1,0-0.1,0c-0.7,0-1.3,0.3-1.6,0.9c-0.4,0.6-0.5,1.3-0.2,2
			c1,2.2,9.8,21.8,17.7,24.5c0.6,0.2,5.3,2,10.8,2c5.3,0,9.6-1.6,12.7-4.7c0.5-0.5,0.7-1.3,0.5-2c-0.1-0.2-1.5-4.4-7.9-6.2
			c0.7-0.7,1.9-1.7,4.4-2.9c0.1,0,0.2-0.1,0.3-0.2c0.1-0.1,2.2-1.5,4.9-3.5l3.4-2.1l17.7,19.3c0.3,0.3,0.7,0.5,1.1,0.6
			c7.6,1.6,14.7,2.3,21.2,2.3c14.9,0,21.7-4.2,22-4.3c0.8-0.5,1.2-1.6,0.8-2.5c-0.1-0.3-2.6-6.2-9.8-6.2c-0.6,0-1.3,0-1.9,0.1
			c-0.2,0-0.3,0.1-0.5,0.1c0,0,0,0,0,0c0,0-0.3,0.1-0.7,0.1c-0.6,0-1.3-0.2-1.9-1.5c0,0,0,0,0-0.1c-0.1-0.1-6.7-13.5-6.2-23.3
			c4,1.6,8.1,2,11,2c2,0,3.5-0.2,3.9-0.2c6.6-0.2,14.7-1.9,24.1-4.9c-0.1,0.2-0.1,0.3-0.2,0.5c0,0,0,0,0,0l0,0
			c-3,7.2-4.6,13.1-4.7,17.6c0,0.2,0,0.4,0.1,0.6c0.4,1.6,4.3,15.6,11.3,17.9c0.1,0,0.2,0,0.2,0.1c0.4,0.1,8.7,1.7,18.6,1.7
			c5.9,0,11-0.6,15.4-1.8c0.6-0.1,1-0.5,1.3-1c0.1-0.2,1-2.1-0.2-4.3c-1.3-2.5-4.4-4.1-9.6-5l-2.4-2.6c1-2,3.1-6,5.2-10.1l0.9-1.6
			l7.6,15c-1.4,2.2-1.1,5.6-0.9,6.8c0.1,0.4,0.2,0.8,0.5,1.1c0.1,0.1,0.1,0.2,0.2,0.2c0.7,0.9,1.1,1,3.3,1.7l0.4,0.1
			c1.8,0.6,4.3,0.8,7.6,1.1c2.1,0.2,4.4,0.4,6.9,0.7c1.4,0.2,2.7,0.4,4,0.6c2.5,0.4,4.6,0.7,6.8,0.7c0.6,0,1.1,0,1.6-0.1
			c10.1-0.8,12.6-3.5,13.1-4.3c0.3-0.5,0.4-1.1,0.3-1.6c-1.5-5.6-5.7-6-7-6c-0.2,0-0.4,0-0.6,0c-1.4-0.1-4.5-1.9-6.4-3.2
			c-4.3-6.1-8.6-20.5-10.9-29c1.2,1.8,3.2,2.9,6,3.2c1.2,3.6,2.9,5.6,2.9,5.7c0.3,0.3,0.6,0.6,1,0.7c0.8,0.2,1.6,0.3,2.4,0.3
			c5.5,0,10.6-4.8,10.8-5c0.7-0.7,0.8-1.9,0.1-2.7c-2.4-2.9-2.8-8.4-1.1-15.6c1.1-3,1.9-5.6,2.2-6.9c0.8-0.5,1.3-0.8,1.3-0.8
			c0.3-0.2,0.6-0.5,0.8-0.8c0.6-1.2,5.1-3.7,8.8-5.2c5.9-1.4,37.3-7.3,40.1-7.8c0,0,0,0,0.1,0c2.2-0.2,3.2-0.5,3.7-0.9
			c2.3-1,4-2.9,5.1-5.6c0.1-0.1,0.1-0.1,0.1-0.2c2.6-4.7,2.6-5.6,2.6-6.1c0-0.5-0.2-1-0.5-1.4c-0.2-0.2-1.9-1.9-4.5-2.1
			c0,0-0.1,0-0.1,0c-0.1,0-0.2,0-0.3,0c-3.5-1.5-8.9-3.1-11-3.8c-1.6-3.2-5.1-5.6-5.5-5.9c-8.8-5.8-22.7-8.2-30.2-9.1
			c-0.2,0-2.1-0.3-4.7-0.6c-0.6-0.1-1-0.1-1.3-0.1c-0.5,0-1.2,0-3.7-0.3c-0.7-0.1-1.5-0.2-2.3-0.4c-0.8-0.2-1.5-0.3-2.1-0.3
			c-2.4-0.5-5.3-1.2-8.4-2.1c-6.4-5-12.6-5.7-15.7-5.7c-0.9,0-1.6,0.1-2.1,0.1c-1.5-0.5-2.5-0.9-2.9-1c-5.5-3.1-10.9-4.7-16.2-4.7
			c-5.2,0-8.2,1.6-8.4,1.7c-0.3,0.1-0.5,0.3-0.7,0.6c-0.9,1.1-7.6,2.7-14.2,3.3c-0.1,0-0.3,0-0.4,0.1c-4.2,1.3-9.4,2-15.6,2
			c-19.9,0-42.8-7.1-43-7.2c-0.1,0-0.2-0.1-0.4-0.1C82.6,3.2,79.8,3,77.1,3L77.1,3L77.1,3z M192,76.8c1.5,0,3.4-0.3,5.5-0.8
			c-2.1,3.6-5.6,7.7-5.6,7.7c-0.2,0.2-0.3,0.5-0.4,0.8c-0.5-1.8-0.7-3-0.8-3c0,0,0-0.1,0-0.1c-0.8-2.9-0.2-4.1,0.3-4.6
			C191.3,76.8,191.7,76.8,192,76.8L192,76.8z"/>
	</g>
</g>
</svg>
