
<svg xmlns="http://www.w3.org/2000/svg" xmlns:xlink="http://www.w3.org/1999/xlink" width="437.203" height="149" viewBox="0 0 437.203 149">
  <defs>
    <clipPath id="clip-path">
      <path d="M331.238,52H8.923A8.91,8.91,0,0,0,1.028,65.042l21.023,40.179a8.911,8.911,0,0,0,7.9,4.779H362.117a8.91,8.91,0,0,0,7.065-14.34L338.3,55.481A8.912,8.912,0,0,0,331.238,52Z" fill="none"/>
    </clipPath>
  </defs>
  <g id="Layer_2" data-name="Layer 2">
    <g id="Layer_1-2" data-name="Layer 1">
      <g id="Premium_Tank" data-name="Premium Tank">
        <path d="M331.238,52H8.923A8.91,8.91,0,0,0,1.028,65.042l21.023,40.179a8.911,8.911,0,0,0,7.9,4.779H362.117a8.91,8.91,0,0,0,7.065-14.34L338.3,55.481A8.912,8.912,0,0,0,331.238,52Z" fill="#56680b"/>
        <rect x="251.203" y="22" width="173" height="13" fill="#56680b"/>
        <g clip-path="url(#clip-path)">
          <g>
            <polygon points="34.203 49 64.203 114 75.203 114 45.203 49 34.203 49" fill="#fff"/>
            <polygon points="64.203 49 53.203 49 83.203 114 94.203 114 64.203 49" fill="#fff"/>
          </g>
        </g>
        <path d="M318.465,149H56.942a15.209,15.209,0,0,1-13.57-7.919l-17.645-33.94C20.883,97.824,28.176,87,39.3,87H336.11c11.121,0,18.413,10.824,13.57,20.141l-17.645,33.94A15.209,15.209,0,0,1,318.465,149Z" fill="#474757"/>
        <path d="M56.306,139a4.42,4.42,0,0,1-3.918-2.275l-17.729-33.94a3.673,3.673,0,0,1,.229-3.9A4.293,4.293,0,0,1,38.574,97H336.832a4.291,4.291,0,0,1,3.686,1.889,3.673,3.673,0,0,1,.231,3.9l-17.731,33.942A4.418,4.418,0,0,1,319.1,139Z" fill="#7c7c7c"/>
        <rect x="385.203" y="17" width="52" height="23" rx="4.124" fill="#69820b"/>
        <g>
          <circle cx="29.703" cy="44.5" r="8.5" fill="#4b560a"/>
          <circle cx="46.703" cy="44.5" r="8.5" fill="#4b560a"/>
          <circle cx="63.703" cy="44.5" r="8.5" fill="#4b560a"/>
        </g>
        <rect x="12.203" y="44" width="71" height="15" rx="7.5" fill="#373f07"/>
        <g>
          <circle cx="69.703" cy="117.5" r="23.5" fill="#282830"/>
          <circle cx="69.703" cy="117.5" r="18.5" fill="#606060"/>
        </g>
        <g>
          <circle cx="116.703" cy="117.5" r="23.5" fill="#282830"/>
          <circle cx="116.703" cy="117.5" r="18.5" fill="#606060"/>
        </g>
        <g>
          <circle cx="163.703" cy="117.5" r="23.5" fill="#282830"/>
          <circle cx="163.703" cy="117.5" r="18.5" fill="#606060"/>
        </g>
        <g>
          <circle cx="210.703" cy="117.5" r="23.5" fill="#282830"/>
          <circle cx="210.703" cy="117.5" r="18.5" fill="#606060"/>
        </g>
        <g>
          <circle cx="257.703" cy="117.5" r="23.5" fill="#282830"/>
          <circle cx="257.703" cy="117.5" r="18.5" fill="#606060"/>
        </g>
        <g>
          <circle cx="304.703" cy="117.5" r="23.5" fill="#282830"/>
          <circle cx="304.703" cy="117.5" r="18.5" fill="#606060"/>
        </g>
        <path d="M271.126,14h-6.471c-.267-2.125-.495-4.255-.662-6.392C263.67,3.483,261.843,0,259.407,0H111.891c-1.438,0-2.8,1.286-3.672,3.481L92.171,43.66C89.83,49.52,92,58,95.843,58H268.48c1.724,0,3.3-1.841,4.1-4.779L270.5,44h.625a5.077,5.077,0,0,0,5.077-5.078V19.078A5.078,5.078,0,0,0,271.126,14Z" fill="#69820b"/>
        <rect x="101.203" y="5" width="170" height="6" rx="3" fill="#56680b"/>
        <path d="M183.278,51.5a17.5,17.5,0,1,1,17.5-17.5A17.52,17.52,0,0,1,183.278,51.5Zm0-34a16.5,16.5,0,1,0,16.5,16.5A16.52,16.52,0,0,0,183.278,17.5Z" fill="#fff"/>
        <polygon points="209.89 34 157.517 34 154.378 28.05 213.028 28.05 209.89 34" fill="#56680b"/>
        <path d="M183.83,22.5l3.2,6.486a.613.613,0,0,0,.463.336l7.157,1.04a.615.615,0,0,1,.341,1.049l-5.179,5.049a.615.615,0,0,0-.177.544l1.223,7.129a.615.615,0,0,1-.893.648l-6.4-3.366a.617.617,0,0,0-.573,0l-6.4,3.366a.615.615,0,0,1-.892-.648l1.223-7.129a.615.615,0,0,0-.177-.544l-5.179-5.049a.615.615,0,0,1,.341-1.049l7.157-1.04a.617.617,0,0,0,.463-.336l3.2-6.486A.615.615,0,0,1,183.83,22.5Z" fill="#fff"/>
      </g>
    </g>
  </g>
</svg>
