<svg version="1.1" id="Layer_1" xmlns="http://www.w3.org/2000/svg" xmlns:xlink="http://www.w3.org/1999/xlink" x="0px" y="0px"
	 viewBox="0 0 911.7 434.9" style="enable-background:new 0 0 911.7 434.9;" xml:space="preserve">
<style type="text/css">
	.st0{fill:url(#SVGID_1_);}
	.st1{fill:#FF03A5;}
	.st2{clip-path:url(#SVGID_00000046317442253487288440000018174953013023015098_);}
	.st3{fill:#F980F0;}
	.st4{fill:#9B9B9B;}
	.st5{fill:#191919;}
	.st6{fill:#D6D6D6;}
	.st7{fill:#12E09B;}
	.st8{clip-path:url(#SVGID_00000103953341564126665510000016142547335870959283_);fill:#434447;}
	.st9{clip-path:url(#SVGID_00000103953341564126665510000016142547335870959283_);}
	.st10{fill:#FF5FAF;}
	.st11{fill:#383838;}
	.st12{fill:#0A7C53;}
	.st13{fill:#5E5E5E;}
	.st14{fill:#777777;}
	.st15{fill:#32323F;}
	.st16{fill:#474757;}
	.st17{fill:#FFFFFF;}
	.st18{fill:#DDDDDD;}
	.st19{fill:#BAC0D8;}
	.st20{fill:#ACAFBC;}
</style>
<g id="Layer_2_00000065770712135312825980000012685271524207345031_">
	<g id="premium-drag-red">
		
			<linearGradient id="SVGID_1_" gradientUnits="userSpaceOnUse" x1="419.7" y1="-118.8402" x2="479.5" y2="-118.8402" gradientTransform="matrix(1 0 0 -1 0 101.7098)">
			<stop  offset="0" style="stop-color:#C9E7F9"/>
			<stop  offset="1" style="stop-color:#AAFFF9"/>
		</linearGradient>
		<polygon class="st0" points="479.5,237 419.7,241.5 435.4,199.6 475,211.6 		"/>
		<path class="st1" d="M475.5,209.4l-0.2-0.3l0,0c-2.7-6.5-9.9-18.2-26.8-19.5c-23.4-1.8-28.7,16.6-28.7,22.5v15.1
			c0,1.8,0.8,3.4,2,4.7h-0.5v12l38.8,6.7v-1.9l9.8,4.1c2.4,1,5.2,0.2,6.7-1.9c2.1-3.5,3.5-7.4,4.2-11.5l0,0c0-0.2,0.1-0.3,0.1-0.5
			C482,223.8,475.8,210,475.5,209.4z M431.6,220c2.2,0,4,1.8,4,4s-1.8,4-4,4s-4-1.8-4-4S429.4,220,431.6,220z M476.4,235.5
			c-3.4,0-8.5-0.8-14.6-5.1s-10.5-12.2-12.1-16.8c-0.8-2.3,0.2-6.2,2.6-6s3.8,0.8,6.6,3c4.5,3.4,9.8,3.7,13.4,3.4
			c0.6,0,1.1-0.2,1.6-0.5c2.7,7.1,4.1,14.6,4.1,22.2L476.4,235.5L476.4,235.5z"/>
		<g>
			<g>
				<defs>
					<path id="SVGID_00000088106165831449747740000012884538846261719428_" d="M475.5,209.4l-0.2-0.3l0,0
						c-2.7-6.5-9.9-18.2-26.8-19.5c-23.4-1.8-28.7,16.6-28.7,22.5v15.1c0,1.8,0.8,3.4,2,4.7h-0.5v12l38.8,6.7v-1.9l9.8,4.1
						c2.4,1,5.2,0.2,6.7-1.9c2.1-3.5,3.5-7.4,4.2-11.5l0,0c0-0.2,0.1-0.3,0.1-0.5C482,223.8,475.8,210,475.5,209.4z M431.6,220
						c2.2,0,4,1.8,4,4s-1.8,4-4,4s-4-1.8-4-4S429.4,220,431.6,220z M476.4,235.5c-3.4,0-8.5-0.8-14.6-5.1s-10.5-12.2-12.1-16.8
						c-0.8-2.3,0.2-6.2,2.6-6s3.8,0.8,6.6,3c4.5,3.4,9.8,3.7,13.4,3.4c0.6,0,1.1-0.2,1.6-0.5c2.7,7.1,4.1,14.6,4.1,22.2L476.4,235.5
						L476.4,235.5z"/>
				</defs>
				<clipPath id="SVGID_00000016788143714136053660000000352535833614389653_">
					<use xlink:href="#SVGID_00000088106165831449747740000012884538846261719428_"  style="overflow:visible;"/>
				</clipPath>
				<g style="clip-path:url(#SVGID_00000016788143714136053660000000352535833614389653_);">
					<polygon class="st3" points="364,154.9 359.3,161.6 438.4,217.7 438.4,315.5 446.6,315.5 446.6,213.8 					"/>
				</g>
			</g>
		</g>
		<rect x="726.8" y="262.4" class="st4" width="101.6" height="44.1"/>
		<polygon class="st4" points="807.5,268.4 747.8,268.4 747.8,237.8 822.5,235.5 		"/>
		<path class="st5" d="M822.5,235.5l-12.2,26.9C810.3,262.4,806,248.2,822.5,235.5z"/>
		<path class="st6" d="M726.8,262.4l62.5,0.2c0,0-25.8,6.5-62.5,5.8V262.4z"/>
		
			<rect x="810.7" y="260.5" transform="matrix(0.1891 -0.982 0.982 0.1891 392.1836 1016.8657)" class="st5" width="2.2" height="20.9"/>
		
			<rect x="808.5" y="265" transform="matrix(0.1891 -0.982 0.982 0.1891 386.0315 1018.4379)" class="st5" width="2.2" height="20.9"/>
		<polygon class="st7" points="448.1,166.8 212,127.2 212,259.4 444.4,274.4 407.8,188.4 		"/>
		<path class="st7" d="M843.6,401.6l-722.8-54.5c-34.9-2.6-61.1-33-58.5-67.9c0-0.1,0-0.1,0-0.2l0,0c2.6-35,33.1-61.2,68-58.6
			c0,0,0,0,0.1,0l0,0l519.5,39.8c35,2.6,224.9,50.8,261.8,82.8l0,0C909.1,378,878.6,404.2,843.6,401.6L843.6,401.6z"/>
		<g>
			<g>
				<defs>
					<path id="SVGID_00000132073679417448877280000017412182231492296637_" d="M843.6,401.6l-722.8-54.5
						c-34.9-2.6-61.1-33-58.5-67.9c0-0.1,0-0.1,0-0.2l0,0c2.6-35,33.1-61.2,68-58.6c0,0,0,0,0.1,0l0,0l81.7,18.4V127.2l236.1,39.6
						l-40.3,21.6l23.8,55.1L650,260.2c35,2.6,224.9,50.8,261.8,82.8l0,0c-2.6,35-33.1,61.2-68,58.6
						C843.7,401.6,843.7,401.6,843.6,401.6z"/>
				</defs>
				<clipPath id="SVGID_00000065046753274544448630000004576225583822879920_">
					<use xlink:href="#SVGID_00000132073679417448877280000017412182231492296637_"  style="overflow:visible;"/>
				</clipPath>
				<polygon style="clip-path:url(#SVGID_00000065046753274544448630000004576225583822879920_);fill:#434447;" points="
					711.2,271.6 709.3,271.3 706.6,271.2 724.4,265.5 703.3,270.9 704.6,264.2 700.4,271.8 624.6,291.2 554.8,260.8 433,273.5 
					402.4,257 398,243.9 399.3,230.9 394.3,246.9 396.6,253.9 380,244.9 273.9,247.1 303.7,202.3 349.3,202.6 410.2,135.7 
					429.8,132.8 457.6,135.8 444.9,130.5 473.1,126.3 405.5,129.6 381,157 380.8,147.5 377.9,160.4 361.4,179 361.9,172.3 
					355.2,185.9 347.4,194.9 342.7,195 343.1,182.6 335.8,195.2 299.9,196.5 245,248.9 261.5,180.7 314.3,139.5 311.5,140 
					277.8,163.4 276.5,154.4 275.5,165 255.5,178.8 228,250.6 168.4,317.6 182.3,329.3 282.7,283.5 353.2,293.4 401.9,329.5 
					468.2,312.7 399.4,323.4 357.6,282 280.3,269.1 374.9,262.5 438.6,287.8 455.1,285 468,287.5 482.4,295.8 471.4,285.2 
					466.4,283.3 509.2,276.7 524.2,296.9 566.4,337.9 587.3,341.1 567,332.1 553.3,313.9 568,307.4 551.1,311 535.3,303.1 
					515.8,275.5 552.1,269.9 620.8,298.3 629.7,295.6 624.3,315.8 632.9,297.9 641.3,312.7 637.2,293.1 703.5,272.1 709.2,272 
					714.6,273 726.2,269.8 				"/>
				<g style="clip-path:url(#SVGID_00000065046753274544448630000004576225583822879920_);">
					<g>
						
							<ellipse transform="matrix(0.4067 -0.9136 0.9136 0.4067 164.7343 794.2462)" class="st3" cx="693.9" cy="270.3" rx="5.5" ry="5.5"/>
						
							<ellipse transform="matrix(0.1859 -0.9826 0.9826 0.1859 295.1092 910.7551)" class="st10" cx="697.2" cy="277.3" rx="5.5" ry="5.5"/>
						
							<ellipse transform="matrix(0.4067 -0.9136 0.9136 0.4067 153.6676 796.2354)" class="st1" cx="689.9" cy="279.8" rx="5.5" ry="5.5"/>
						
							<ellipse transform="matrix(0.4067 -0.9136 0.9136 0.4067 157.1977 788.2819)" class="st3" cx="685.5" cy="273.1" rx="5.5" ry="5.5"/>
						
							<ellipse transform="matrix(0.1859 -0.9826 0.9826 0.1859 295.4977 896.8771)" class="st10" cx="689" cy="270.1" rx="5.5" ry="5.5"/>
						
							<ellipse transform="matrix(0.1859 -0.9826 0.9826 0.1859 292.3548 903.869)" class="st11" cx="691.7" cy="275.5" rx="2.2" ry="2.2"/>
					</g>
					<g>
						
							<ellipse transform="matrix(0.1859 -0.9826 0.9826 0.1859 313.0904 927.4442)" class="st3" cx="716.3" cy="274.8" rx="4.6" ry="4.6"/>
						
							<ellipse transform="matrix(0.1859 -0.9826 0.9826 0.1859 315.7246 934.7469)" class="st10" cx="722" cy="276.8" rx="4.6" ry="4.6"/>
						
							<ellipse transform="matrix(0.1859 -0.9826 0.9826 0.1859 307.9769 936.576)" class="st1" cx="719.2" cy="282.4" rx="4.6" ry="4.6"/>
						
							<ellipse transform="matrix(0.1859 -0.9826 0.9826 0.1859 304.3893 929.4498)" class="st3" cx="713.1" cy="281" rx="4.6" ry="4.6"/>
						
							<ellipse transform="matrix(0.1859 -0.9826 0.9826 0.1859 308.2384 926.2717)" class="st10" cx="713.1" cy="277.1" rx="4.6" ry="4.6"/>
						
							<ellipse transform="matrix(0.1859 -0.9826 0.9826 0.1859 310.2794 932.501)" class="st11" cx="717.9" cy="279" rx="1.7" ry="1.7"/>
					</g>
					<g>
						
							<ellipse transform="matrix(0.1859 -0.9826 0.9826 0.1859 314.5031 908.4457)" class="st3" cx="705.5" cy="264.4" rx="2.6" ry="2.6"/>
						
							<ellipse transform="matrix(0.1859 -0.9826 0.9826 0.1859 316.3889 904.2506)" class="st10" cx="703.9" cy="261.2" rx="2.6" ry="2.6"/>
						
							<ellipse transform="matrix(0.1859 -0.9826 0.9826 0.1859 320.4639 906.553)" class="st1" cx="707.3" cy="259.9" rx="2.6" ry="2.6"/>
						
							<ellipse transform="matrix(0.1859 -0.9826 0.9826 0.1859 319.1432 911.1367)" class="st3" cx="709.4" cy="263" rx="2.6" ry="2.6"/>
						
							<ellipse transform="matrix(0.1859 -0.9826 0.9826 0.1859 316.2546 910.9813)" class="st10" cx="707.9" cy="264.6" rx="2.6" ry="2.6"/>
						
							<ellipse transform="matrix(0.1859 -0.9826 0.9826 0.1859 317.7518 907.3511)" class="st11" cx="706.5" cy="261.9" rx="1" ry="1"/>
					</g>
					<g>
						<circle class="st3" cx="541.6" cy="296.8" r="8.9"/>
						<circle class="st10" cx="537.5" cy="308.4" r="8.9"/>
						<circle class="st1" cx="526.7" cy="303.2" r="8.9"/>
						<circle class="st3" cx="529.1" cy="290.7" r="8.9"/>
						<circle class="st10" cx="536.6" cy="291.2" r="8.9"/>
						
							<ellipse transform="matrix(0.1859 -0.9826 0.9826 0.1859 139.0977 768.5482)" class="st11" cx="533.4" cy="300.3" rx="3.4" ry="3.4"/>
					</g>
					<g>
						<circle class="st3" cx="561.8" cy="327" r="7.2"/>
						<circle class="st10" cx="566.3" cy="335.9" r="7.2"/>
						<circle class="st1" cx="556.8" cy="339.3" r="7.2"/>
						<circle class="st3" cx="551.1" cy="330.6" r="7.2"/>
						<circle class="st10" cx="555.6" cy="326.5" r="7.2"/>
						
							<ellipse transform="matrix(0.1859 -0.9826 0.9826 0.1859 127.1262 821.0585)" class="st11" cx="559.1" cy="333.8" rx="2.6" ry="2.6"/>
					</g>
					<g>
						<circle class="st3" cx="561.4" cy="303.4" r="4.3"/>
						<circle class="st10" cx="563.2" cy="297.9" r="4.3"/>
						<circle class="st1" cx="568.6" cy="300.4" r="4.3"/>
						<circle class="st3" cx="567.5" cy="306.3" r="4.3"/>
						<circle class="st10" cx="563.8" cy="306.1" r="4.3"/>
						<circle class="st11" cx="565.4" cy="301.7" r="1.7"/>
					</g>
					<g>
						
							<ellipse transform="matrix(0.1859 -0.9826 0.9826 0.1859 43.9468 408.0794)" class="st3" cx="268.2" cy="177.5" rx="8.9" ry="8.9"/>
						
							<ellipse transform="matrix(0.1859 -0.9826 0.9826 0.1859 50.7056 422.2117)" class="st10" cx="280.2" cy="180.5" rx="8.9" ry="8.9"/>
						
							<ellipse transform="matrix(0.1859 -0.9826 0.9826 0.1859 36.2202 427.0635)" class="st1" cx="275.8" cy="191.7" rx="8.9" ry="8.9"/>
						
							<ellipse transform="matrix(0.1859 -0.9826 0.9826 0.1859 27.1661 413.8494)" class="st3" cx="263.3" cy="190.5" rx="8.9" ry="8.9"/>
						
							<ellipse transform="matrix(0.1859 -0.9826 0.9826 0.1859 34.4477 407.373)" class="st10" cx="263.1" cy="182.9" rx="8.9" ry="8.9"/>
						<circle class="st11" cx="272.6" cy="185.4" r="3.4"/>
					</g>
					<g>
						<circle class="st3" cx="296.8" cy="154.8" r="7.2"/>
						<circle class="st10" cx="305.3" cy="149.8" r="7.2"/>
						<circle class="st1" cx="309.2" cy="158.9" r="7.2"/>
						<circle class="st3" cx="301.2" cy="165.2" r="7.2"/>
						<circle class="st10" cx="296.8" cy="160.9" r="7.2"/>
						<circle class="st11" cx="303.7" cy="156.8" r="2.6"/>
					</g>
					<g>
						<circle class="st3" cx="273.3" cy="157.2" r="4.3"/>
						
							<ellipse transform="matrix(0.1859 -0.9826 0.9826 0.1859 65.0147 389.7804)" class="st10" cx="267.7" cy="155.7" rx="4.3" ry="4.3"/>
						
							<ellipse transform="matrix(0.1859 -0.9826 0.9826 0.1859 71.7807 387.4427)" class="st1" cx="269.7" cy="150.4" rx="4.3" ry="4.3"/>
						
							<ellipse transform="matrix(0.1859 -0.9826 0.9826 0.1859 76.2937 393.7073)" class="st3" cx="275.7" cy="150.8" rx="4.3" ry="4.3"/>
						
							<ellipse transform="matrix(0.1859 -0.9826 0.9826 0.1859 72.7129 396.7371)" class="st10" cx="275.8" cy="154.5" rx="4.3" ry="4.3"/>
						
							<ellipse transform="matrix(0.1859 -0.9826 0.9826 0.1859 70.1634 391.4896)" class="st11" cx="271.3" cy="153.4" rx="1.7" ry="1.7"/>
					</g>
					<g>
						<circle class="st3" cx="383.3" cy="234" r="6.5"/>
						
							<ellipse transform="matrix(0.1859 -0.9826 0.9826 0.1859 74.1873 575.6469)" class="st10" cx="384.5" cy="243.1" rx="6.5" ry="6.5"/>
						
							<ellipse transform="matrix(0.1859 -0.9826 0.9826 0.1859 66.701 567.1716)" class="st1" cx="375.6" cy="243.3" rx="6.5" ry="6.5"/>
						
							<ellipse transform="matrix(0.1859 -0.9826 0.9826 0.1859 73.4247 557.1499)" class="st3" cx="372.9" cy="234.3" rx="6.5" ry="6.5"/>
						<circle class="st10" cx="378" cy="232" r="6.5"/>
						<circle class="st11" cx="379.1" cy="239.3" r="2.4"/>
					</g>
					<g>
						
							<ellipse transform="matrix(0.1859 -0.9826 0.9826 0.1859 88.1286 600.8746)" class="st3" cx="406.7" cy="247.3" rx="5.3" ry="5.3"/>
						
							<ellipse transform="matrix(0.1859 -0.9826 0.9826 0.1859 88.524 610.4656)" class="st10" cx="412.7" cy="251.8" rx="5.3" ry="5.3"/>
						
							<ellipse transform="matrix(0.1859 -0.9826 0.9826 0.1859 79.2932 609.6109)" class="st1" cx="407.5" cy="257" rx="5.3" ry="5.3"/>
						
							<ellipse transform="matrix(0.1859 -0.9826 0.9826 0.1859 77.5276 600.0764)" class="st3" cx="400.9" cy="253.3" rx="5.3" ry="5.3"/>
						
							<ellipse transform="matrix(0.1859 -0.9826 0.9826 0.1859 83.0718 598.0636)" class="st10" cx="402.5" cy="248.9" rx="5.3" ry="5.3"/>
						
							<ellipse transform="matrix(0.1859 -0.9826 0.9826 0.1859 83.5308 605.8678)" class="st11" cx="407.4" cy="252.5" rx="1.9" ry="1.9"/>
					</g>
					<g>
						<circle class="st3" cx="382.6" cy="138.3" r="5.3"/>
						
							<ellipse transform="matrix(0.1859 -0.9826 0.9826 0.1859 175.9812 498.0228)" class="st10" cx="388.5" cy="142.8" rx="5.3" ry="5.3"/>
						
							<ellipse transform="matrix(0.1859 -0.9826 0.9826 0.1859 166.7504 497.1682)" class="st1" cx="383.4" cy="148" rx="5.3" ry="5.3"/>
						
							<ellipse transform="matrix(0.1859 -0.9826 0.9826 0.1859 164.9849 487.6336)" class="st3" cx="376.8" cy="144.2" rx="5.3" ry="5.3"/>
						
							<ellipse transform="matrix(0.1859 -0.9826 0.9826 0.1859 170.529 485.6208)" class="st10" cx="378.3" cy="139.9" rx="5.3" ry="5.3"/>
						
							<ellipse transform="matrix(0.1859 -0.9826 0.9826 0.1859 170.8397 493.1566)" class="st11" cx="383" cy="143.5" rx="1.9" ry="1.9"/>
					</g>
					<g>
						<circle class="st3" cx="463.4" cy="129.8" r="5.3"/>
						
							<ellipse transform="matrix(0.1859 -0.9826 0.9826 0.1859 250.0672 570.5917)" class="st10" cx="469.4" cy="134.4" rx="5.3" ry="5.3"/>
						<circle class="st1" cx="464.2" cy="139.8" r="5.3"/>
						<circle class="st3" cx="457.6" cy="135.8" r="5.3"/>
						
							<ellipse transform="matrix(0.1859 -0.9826 0.9826 0.1859 244.3466 558.3381)" class="st10" cx="459.1" cy="131.7" rx="5.3" ry="5.3"/>
						<circle class="st11" cx="463.8" cy="135.3" r="1.9"/>
					</g>
					<g>
						<circle class="st3" cx="436.7" cy="308.4" r="5.3"/>
						<circle class="st10" cx="442.6" cy="313.2" r="5.3"/>
						<circle class="st1" cx="437.5" cy="318.4" r="5.3"/>
						<circle class="st3" cx="430.9" cy="314.7" r="5.3"/>
						<circle class="st10" cx="432.4" cy="310.3" r="5.3"/>
						<circle class="st11" cx="437.1" cy="313.9" r="1.9"/>
					</g>
					<g>
						<circle class="st3" cx="409.3" cy="324.1" r="5.3"/>
						<circle class="st10" cx="415" cy="328.6" r="5.3"/>
						<circle class="st1" cx="409.9" cy="333.9" r="5.3"/>
						<circle class="st3" cx="403.2" cy="330.2" r="5.3"/>
						<circle class="st10" cx="405" cy="325.9" r="5.3"/>
						<circle class="st11" cx="409.7" cy="329.5" r="1.9"/>
					</g>
					<g>
						<circle class="st3" cx="479.6" cy="292.6" r="5.3"/>
						<circle class="st10" cx="485.3" cy="297.1" r="5.3"/>
						<circle class="st1" cx="480.1" cy="302.5" r="5.3"/>
						<circle class="st3" cx="473.5" cy="298.5" r="5.3"/>
						<circle class="st10" cx="475.3" cy="294.5" r="5.3"/>
						<circle class="st11" cx="480" cy="298.1" r="1.9"/>
					</g>
					<g>
						<circle class="st3" cx="644.1" cy="305.6" r="5.3"/>
						<circle class="st10" cx="650.1" cy="310.2" r="5.3"/>
						<circle class="st1" cx="645" cy="315.3" r="5.3"/>
						<circle class="st3" cx="638.3" cy="311.6" r="5.3"/>
						<circle class="st10" cx="639.9" cy="307.5" r="5.3"/>
						<circle class="st11" cx="644.6" cy="311.1" r="1.9"/>
					</g>
					<g>
						
							<ellipse transform="matrix(0.1859 -0.9826 0.9826 0.1859 27.6737 506.0586)" class="st3" cx="319.2" cy="236.3" rx="5.3" ry="5.3"/>
						
							<ellipse transform="matrix(0.1859 -0.9826 0.9826 0.1859 28.0691 515.6497)" class="st10" cx="325.2" cy="240.9" rx="5.3" ry="5.3"/>
						<circle class="st1" cx="320.1" cy="246.3" r="5.3"/>
						
							<ellipse transform="matrix(0.1859 -0.9826 0.9826 0.1859 16.6561 505.1404)" class="st3" cx="313.2" cy="242.5" rx="5.3" ry="5.3"/>
						
							<ellipse transform="matrix(0.1859 -0.9826 0.9826 0.1859 22.3485 503.396)" class="st10" cx="315" cy="238.2" rx="5.3" ry="5.3"/>
						
							<ellipse transform="matrix(0.1859 -0.9826 0.9826 0.1859 22.6592 510.9318)" class="st11" cx="319.7" cy="241.8" rx="1.9" ry="1.9"/>
					</g>
					<g>
						
							<ellipse transform="matrix(0.1859 -0.9826 0.9826 0.1859 11.4514 448.8091)" class="st3" cx="276.6" cy="217.5" rx="5.3" ry="5.3"/>
						
							<ellipse transform="matrix(0.1859 -0.9826 0.9826 0.1859 11.6985 458.1317)" class="st10" cx="282.3" cy="222" rx="5.3" ry="5.3"/>
						
							<ellipse transform="matrix(0.1859 -0.9826 0.9826 0.1859 2.1994 457.4254)" class="st1" cx="277.2" cy="227.4" rx="5.3" ry="5.3"/>
						
							<ellipse transform="matrix(0.1859 -0.9826 0.9826 0.1859 0.7022 447.7425)" class="st3" cx="270.6" cy="223.4" rx="5.3" ry="5.3"/>
						
							<ellipse transform="matrix(0.1859 -0.9826 0.9826 0.1859 6.1263 446.1464)" class="st10" cx="272.3" cy="219.4" rx="5.3" ry="5.3"/>
						
							<ellipse transform="matrix(0.1859 -0.9826 0.9826 0.1859 6.4369 453.6822)" class="st11" cx="277" cy="223" rx="1.9" ry="1.9"/>
					</g>
					<g>
						
							<ellipse transform="matrix(0.1859 -0.9826 0.9826 0.1859 96.7522 580.3437)" class="st3" cx="398.6" cy="231.8" rx="3.1" ry="3.1"/>
						
							<ellipse transform="matrix(0.1859 -0.9826 0.9826 0.1859 100.4248 576.2121)" class="st10" cx="398" cy="227.5" rx="3.1" ry="3.1"/>
						
							<ellipse transform="matrix(0.1859 -0.9826 0.9826 0.1859 104.168 580.4497)" class="st1" cx="402.4" cy="227.4" rx="3.1" ry="3.1"/>
						
							<ellipse transform="matrix(0.1859 -0.9826 0.9826 0.1859 100.792 585.118)" class="st3" cx="403.5" cy="231.7" rx="3.1" ry="3.1"/>
						
							<ellipse transform="matrix(0.1859 -0.9826 0.9826 0.1859 97.8469 583.5925)" class="st10" cx="401.1" cy="232.7" rx="3.1" ry="3.1"/>
						<circle class="st11" cx="400.8" cy="229.3" r="1.2"/>
					</g>
					<g>
						
							<ellipse transform="matrix(0.1859 -0.9826 0.9826 0.1859 107.0645 484.2571)" class="st3" cx="345.8" cy="177.5" rx="6.5" ry="6.5"/>
						
							<ellipse transform="matrix(0.1859 -0.9826 0.9826 0.1859 99.1826 492.817)" class="st10" cx="347" cy="186.6" rx="6.5" ry="6.5"/>
						
							<ellipse transform="matrix(0.1859 -0.9826 0.9826 0.1859 91.548 484.0734)" class="st1" cx="337.9" cy="186.8" rx="6.5" ry="6.5"/>
						
							<ellipse transform="matrix(0.1859 -0.9826 0.9826 0.1859 98.42 474.32)" class="st3" cx="335.5" cy="177.8" rx="6.5" ry="6.5"/>
						
							<ellipse transform="matrix(0.1859 -0.9826 0.9826 0.1859 104.7269 477.4911)" class="st10" cx="340.5" cy="175.5" rx="6.5" ry="6.5"/>
						<circle class="st11" cx="341.4" cy="182.8" r="2.4"/>
					</g>
					<g>
						
							<ellipse transform="matrix(0.1859 -0.9826 0.9826 0.1859 113.1239 518.0447)" class="st3" cx="369.2" cy="190.8" rx="5.3" ry="5.3"/>
						
							<ellipse transform="matrix(0.1859 -0.9826 0.9826 0.1859 113.371 527.3673)" class="st10" cx="374.9" cy="195.3" rx="5.3" ry="5.3"/>
						
							<ellipse transform="matrix(0.1859 -0.9826 0.9826 0.1859 104.1402 526.5126)" class="st1" cx="369.8" cy="200.4" rx="5.3" ry="5.3"/>
						
							<ellipse transform="matrix(0.1859 -0.9826 0.9826 0.1859 102.3747 516.9781)" class="st3" cx="363.2" cy="196.7" rx="5.3" ry="5.3"/>
						
							<ellipse transform="matrix(0.1859 -0.9826 0.9826 0.1859 108.0671 515.2337)" class="st10" cx="365" cy="192.4" rx="5.3" ry="5.3"/>
						
							<ellipse transform="matrix(0.1859 -0.9826 0.9826 0.1859 108.1094 522.9178)" class="st11" cx="369.6" cy="196.2" rx="1.9" ry="1.9"/>
					</g>
					<g>
						
							<ellipse transform="matrix(0.1859 -0.9826 0.9826 0.1859 121.5992 497.2454)" class="st3" cx="360.9" cy="175.2" rx="3.1" ry="3.1"/>
						
							<ellipse transform="matrix(0.1859 -0.9826 0.9826 0.1859 125.4202 493.3822)" class="st10" cx="360.5" cy="171" rx="3.1" ry="3.1"/>
						
							<ellipse transform="matrix(0.1859 -0.9826 0.9826 0.1859 128.7466 497.4997)" class="st1" cx="364.6" cy="171.1" rx="3.1" ry="3.1"/>
						<circle class="st3" cx="366" cy="175.2" r="3.1"/>
						
							<ellipse transform="matrix(0.1859 -0.9826 0.9826 0.1859 122.6939 500.4942)" class="st10" cx="363.4" cy="176.2" rx="3.1" ry="3.1"/>
						<circle class="st11" cx="363" cy="173" r="1.2"/>
					</g>
				</g>
			</g>
		</g>
		<path class="st12" d="M109.1,325.1l784.6,45.8c10.3,0.6,18.2,9.5,17.6,19.8l0,0c-0.6,10.3-9.4,18.1-19.6,17.5c0,0,0,0-0.1,0
			l-784.7-45.8c-10.3-0.6-18.1-9.4-17.5-19.6c0,0,0,0,0-0.1l0,0C90,332.4,98.8,324.5,109.1,325.1z"/>
		
			<rect x="290.6" y="253.7" transform="matrix(0.9361 -0.3518 0.3518 0.9361 -71.1644 123.4201)" class="st13" width="26.9" height="7.6"/>
		
			<rect x="298" y="273.1" transform="matrix(0.9361 -0.3518 0.3518 0.9361 -77.5113 127.2625)" class="st13" width="26.9" height="7.6"/>
		
			<rect x="278.6" y="60.8" transform="matrix(0.9361 -0.3518 0.3518 0.9361 -34.1391 111.2415)" class="st14" width="20.9" height="177.5"/>
		<ellipse transform="matrix(0.9361 -0.3518 0.3518 0.9361 -7.771 95.462)" class="st13" cx="258.8" cy="69.1" rx="10.5" ry="9.7"/>
		<ellipse transform="matrix(0.9373 -0.3486 0.3486 0.9373 -7.231 94.4025)" class="st4" cx="258.7" cy="67.3" rx="10.5" ry="9.7"/>
		<ellipse transform="matrix(0.9361 -0.3518 0.3518 0.9361 -6.9268 94.9441)" class="st5" cx="257.8" cy="66.5" rx="9" ry="8.3"/>
		
			<rect x="316.5" y="194.8" transform="matrix(0.9361 -0.3518 0.3518 0.9361 -73.7771 134.9471)" class="st4" width="35.9" height="151.3"/>
		
			<rect x="233.9" y="77.6" transform="matrix(0.9361 -0.3518 0.3518 0.9361 -42.9028 96.5896)" class="st14" width="20.9" height="177.5"/>
		<ellipse transform="matrix(0.9361 -0.3518 0.3518 0.9361 -16.541 80.7749)" class="st13" cx="214" cy="85.9" rx="10.5" ry="9.7"/>
		
			<ellipse transform="matrix(0.9361 -0.3518 0.3518 0.9361 -15.6882 80.2961)" class="st4" cx="213.1" cy="83.3" rx="10.5" ry="9.7"/>
		<ellipse transform="matrix(0.9361 -0.3518 0.3518 0.9361 -15.6882 80.2961)" class="st5" cx="213.1" cy="83.3" rx="9" ry="8.3"/>
		
			<rect x="271.8" y="211.7" transform="matrix(0.9361 -0.3518 0.3518 0.9361 -82.576 120.3016)" class="st4" width="35.9" height="151.3"/>
		
			<rect x="92.5" y="209.4" transform="matrix(0.9361 -0.3518 0.3518 0.9361 -68.3243 50.9199)" class="st13" width="26.9" height="8.1"/>
		
			<rect x="100.4" y="230" transform="matrix(0.9361 -0.3518 0.3518 0.9361 -75.0662 55.0112)" class="st13" width="26.9" height="8.1"/>
		
			<rect x="78" y="4.2" transform="matrix(0.9361 -0.3518 0.3518 0.9361 -29.125 37.4405)" class="st14" width="20.9" height="189.3"/>
		<ellipse transform="matrix(0.9361 -0.3518 0.3518 0.9361 -0.9793 20.6023)" class="st13" cx="56.2" cy="13" rx="10.5" ry="10.3"/>
		<ellipse transform="matrix(0.9373 -0.3486 0.3486 0.9373 -0.1394 19.993)" class="st4" cx="55.5" cy="10.4" rx="10.5" ry="10.3"/>
		
			<ellipse transform="matrix(0.9361 -0.3518 0.3518 0.9361 -5.694937e-02 20.0669)" class="st5" cx="55.2" cy="10.2" rx="9" ry="8.8"/>
		
			<rect x="119.1" y="147.1" transform="matrix(0.9361 -0.3518 0.3518 0.9361 -71.3609 62.7749)" class="st4" width="35.9" height="161.3"/>
		
			<rect x="33.2" y="20.9" transform="matrix(0.9361 -0.3518 0.3518 0.9361 -37.8643 22.7351)" class="st14" width="20.9" height="189.3"/>
		
			<ellipse transform="matrix(0.9361 -0.3518 0.3518 0.9361 -9.7218 5.9404)" class="st13" cx="11.5" cy="29.7" rx="10.5" ry="10.3"/>
		<ellipse transform="matrix(0.9361 -0.3518 0.3518 0.9361 -8.839 5.3842)" class="st4" cx="10.4" cy="27" rx="10.5" ry="10.3"/>
		<ellipse transform="matrix(0.9361 -0.3518 0.3518 0.9361 -8.839 5.3842)" class="st5" cx="10.4" cy="27" rx="9" ry="8.8"/>
		
			<rect x="74.3" y="163.9" transform="matrix(0.9361 -0.3518 0.3518 0.9361 -80.1395 48.0782)" class="st4" width="35.9" height="161.3"/>
		
			<rect x="193.3" y="240.2" transform="matrix(0.9373 -0.3486 0.3486 0.9373 -72.1926 87.421)" class="st13" width="27" height="8.2"/>
		
			<rect x="200.9" y="259.7" transform="matrix(0.9361 -0.3518 0.3518 0.9361 -79.1043 92.2621)" class="st13" width="26.9" height="8.2"/>
		
			<rect x="178" y="31.4" transform="matrix(0.9361 -0.3518 0.3518 0.9361 -32.686 74.4275)" class="st14" width="20.9" height="191.5"/>
		
			<ellipse transform="matrix(0.9361 -0.3518 0.3518 0.9361 -4.2231 57.3874)" class="st13" cx="155.8" cy="40.3" rx="10.5" ry="10.4"/>
		<ellipse class="st4" cx="155.8" cy="37.8" rx="10.5" ry="10.5"/>
		<ellipse transform="matrix(0.9361 -0.3518 0.3518 0.9361 -3.2656 56.8456)" class="st5" cx="154.8" cy="37.4" rx="9" ry="8.9"/>
		
			<rect x="219.5" y="175.9" transform="matrix(0.9361 -0.3518 0.3518 0.9361 -75.4204 99.9984)" class="st4" width="35.9" height="163.2"/>
		
			<rect x="133.3" y="48.2" transform="matrix(0.9361 -0.3518 0.3518 0.9361 -41.4497 59.7757)" class="st14" width="20.9" height="191.5"/>
		
			<ellipse transform="matrix(0.9361 -0.3518 0.3518 0.9361 -12.9845 42.7394)" class="st13" cx="111.1" cy="57.1" rx="10.5" ry="10.4"/>
		
			<ellipse transform="matrix(0.9361 -0.3518 0.3518 0.9361 -12.0357 42.1586)" class="st4" cx="110" cy="54.2" rx="10.5" ry="10.4"/>
		<ellipse transform="matrix(0.9372 -0.3489 0.3489 0.9372 -12.1594 41.9253)" class="st5" cx="110.3" cy="54.7" rx="9" ry="8.9"/>
		
			<rect x="174.9" y="194" transform="matrix(0.9373 -0.3486 0.3486 0.9373 -84.0609 84.5471)" class="st4" width="36" height="163.7"/>
		
			<ellipse transform="matrix(4.187186e-02 -0.9991 0.9991 4.187186e-02 -155.6337 459.4371)" class="st15" cx="161.7" cy="310.9" rx="124" ry="124.8"/>
		
			<ellipse transform="matrix(4.187663e-02 -0.9991 0.9991 4.187663e-02 -155.6343 459.4356)" class="st16" cx="161.7" cy="310.9" rx="120.7" ry="121.5"/>
		
			<ellipse transform="matrix(4.187663e-02 -0.9991 0.9991 4.187663e-02 -155.6343 459.4356)" cx="161.7" cy="310.9" rx="90.8" ry="91.4"/>
		
			<ellipse transform="matrix(4.187282e-02 -0.9991 0.9991 4.187282e-02 -155.6339 459.4367)" class="st17" cx="161.7" cy="310.9" rx="86.4" ry="86.9"/>
		
			<ellipse transform="matrix(4.187344e-02 -0.9991 0.9991 4.187344e-02 -155.6339 459.4366)" class="st18" cx="161.7" cy="310.9" rx="81.9" ry="82.5"/>
		
			<ellipse transform="matrix(4.187186e-02 -0.9991 0.9991 4.187186e-02 -155.6338 459.4371)" class="st19" cx="161.7" cy="310.9" rx="50.9" ry="51.3"/>
		
			<ellipse transform="matrix(4.187663e-02 -0.9991 0.9991 4.187663e-02 -155.6343 459.4356)" class="st20" cx="161.7" cy="310.9" rx="46.5" ry="46.8"/>
		
			<ellipse transform="matrix(4.187663e-02 -0.9991 0.9991 4.187663e-02 291.5153 1026.4896)" class="st15" cx="681" cy="361.2" rx="71.3" ry="71.7"/>
		
			<ellipse transform="matrix(4.187663e-02 -0.9991 0.9991 4.187663e-02 291.5153 1026.4896)" class="st16" cx="681" cy="361.2" rx="69.4" ry="69.8"/>
		
			<ellipse transform="matrix(4.187663e-02 -0.9991 0.9991 4.187663e-02 291.5153 1026.4896)" cx="681" cy="361.2" rx="52.2" ry="52.5"/>
		
			<ellipse transform="matrix(4.187663e-02 -0.9991 0.9991 4.187663e-02 291.5153 1026.4896)" class="st17" cx="681" cy="361.2" rx="49.6" ry="50"/>
		
			<ellipse transform="matrix(4.187663e-02 -0.9991 0.9991 4.187663e-02 291.5153 1026.4896)" class="st18" cx="681" cy="361.2" rx="47.1" ry="47.4"/>
		
			<ellipse transform="matrix(4.013162e-02 -0.9992 0.9992 4.013162e-02 293.0114 1025.1987)" class="st19" cx="680.1" cy="360.1" rx="29.3" ry="29.5"/>
		
			<ellipse transform="matrix(4.187663e-02 -0.9991 0.9991 4.187663e-02 291.5153 1026.4896)" class="st20" cx="681" cy="361.2" rx="26.7" ry="26.9"/>
	</g>
</g>
</svg>
