
<?xml version="1.0" encoding="utf-8"?>
<!-- Generator: Adobe Illustrator 26.1.0, SVG Export Plug-In . SVG Version: 6.00 Build 0)  -->
<svg version="1.1" id="Layer_1" xmlns="http://www.w3.org/2000/svg" xmlns:xlink="http://www.w3.org/1999/xlink" x="0px" y="0px"
	 viewBox="0 0 322.5 132.7" style="enable-background:new 0 0 322.5 132.7;" xml:space="preserve">
<style type="text/css">
	.st0{fill:#12E09B;}
	.st1{fill:#434447;}
	.st2{fill:#F980F0;}
	.st3{fill:#FF5FAF;}
	.st4{fill:#FF03A5;}
	.st5{fill:#383838;}
	.st6{fill:#474757;}
	.st7{opacity:0.13;}
	.st8{fill:#32323F;}
	.st9{fill:#FFFFFF;}
	.st10{fill:#DDDDDD;}
	.st11{fill:#BAC0D8;}
	.st12{fill:#ACAFBC;}
	.st13{clip-path:url(#SVGID_00000034769523325581715700000006254013029378366095_);}
	.st14{fill:#AAFFF9;}
	.st15{clip-path:url(#SVGID_00000011741299921652583960000007382893365171639209_);}
	.st16{fill:#ABFEF9;}
</style>
<g id="Layer_2_00000104677501208473528040000017177914661483840695_">
	<g id="SkullCar_Free">
		<g id="Basic_DarkRed">
			<g id="premium-water">
				<path class="st0" d="M232.2,37.7h34.9c27.3,0.1,49.3,15.7,49.2,45.4v19.4c3.5,0,6.3,3.1,6.3,6.9s-2.8,6.9-6.3,6.9l-225-0.8
					L19,102.8c-3.4-0.2-6.1-3.1-6-6.5c0-3.7,2.7-6.6,6-6.6V46.9c0-8.6,6.5-15.5,14.3-15.5h2.2c32.9,0.2,56.1-8.1,84.9-23.8l6.2-3.4
					c3.5-1.8,7.4-3,11.3-3.5c6.4-0.6,50.7,1.6,50.7,1.6s14-2,21.5,11.1s22.7,25,22.7,25"/>
				<polygon class="st1" points="264.9,44.3 264.1,44.3 263,44.5 269.8,40.8 261.6,44.6 261.6,41.8 260.5,45.2 231,59 200.1,52 
					151.3,66.6 137.5,62.2 134.7,57.2 134.2,51.8 133.4,58.7 134.9,61.4 127.4,59 84.2,68.1 92.9,47.5 111.6,44.1 131.3,12 
					139.1,9.3 150.7,8.4 145.1,7.2 156.3,3.3 128.9,9.9 121,23 120.2,19.1 120,24.6 114.7,33.5 114.4,30.7 112.7,36.8 110.2,41.1 
					108.3,41.5 107.5,36.4 105.5,42.1 90.9,45.4 72.5,71.1 74,41.9 92.4,21 91.3,21.4 79.3,33.6 78.1,30 78.5,34.4 71.4,41.6 
					65.7,73.1 46.5,105.1 53.1,108.8 90.6,82.3 120.2,80.9 142.9,91.9 168.7,79.9 141.4,89.6 121.1,75.9 88.5,76.6 126.7,66.6 
					154.7,72 161.2,69.6 166.7,69.6 173.2,71.9 167.9,68.4 165.7,68 182.7,62 190.4,69.1 210.8,82.6 219.6,82.3 210.6,80.2 
					203.6,73.8 209.1,70 202.5,72.8 195.4,70.8 185.3,61 199.7,55.9 230,62.2 233.4,60.4 232.8,69.1 234.9,61.1 239.5,66.5 
					236.3,58.8 261.8,45.1 264.1,44.6 266.4,44.6 270.9,42.4 				"/>
				<g>
					<g>
						<circle class="st2" cx="257.7" cy="45.1" r="2.3"/>
						<circle class="st3" cx="259.6" cy="47.7" r="2.3"/>
						<circle class="st4" cx="256.8" cy="49.3" r="2.3"/>
						<circle class="st2" cx="254.5" cy="46.9" r="2.3"/>
						<circle class="st3" cx="255.7" cy="45.4" r="2.3"/>
						<circle class="st5" cx="257.2" cy="47.4" r="0.9"/>
					</g>
					<g>
						<circle class="st2" cx="267.2" cy="45.2" r="1.9"/>
						<circle class="st3" cx="269.7" cy="45.6" r="1.9"/>
						<circle class="st4" cx="269" cy="48.1" r="1.9"/>
						<circle class="st2" cx="266.4" cy="48" r="1.9"/>
						<circle class="st3" cx="266.1" cy="46.4" r="1.9"/>
						<circle class="st5" cx="268.2" cy="46.8" r="0.7"/>
					</g>
					<g>
						<circle class="st2" cx="262" cy="41.8" r="1.1"/>
						<circle class="st3" cx="261.1" cy="40.6" r="1.1"/>
						<circle class="st4" cx="262.4" cy="39.8" r="1.1"/>
						<circle class="st2" cx="263.5" cy="40.9" r="1.1"/>
						<circle class="st3" cx="263" cy="41.7" r="1.1"/>
						<circle class="st5" cx="262.2" cy="40.7" r="0.4"/>
					</g>
					<g>
						<circle class="st2" cx="197.5" cy="67.7" r="3.7"/>
						<circle class="st3" cx="196.7" cy="72.8" r="3.7"/>
						<circle class="st4" cx="191.9" cy="71.5" r="3.7"/>
						<circle class="st2" cx="191.9" cy="66.2" r="3.7"/>
						<circle class="st3" cx="195" cy="65.8" r="3.7"/>
						<circle class="st5" cx="194.4" cy="69.8" r="1.4"/>
					</g>
					<g>
						<circle class="st2" cx="208.1" cy="78.5" r="3"/>
						<circle class="st3" cx="210.6" cy="81.8" r="3"/>
						<circle class="st4" cx="207" cy="83.9" r="3"/>
						<circle class="st2" cx="204" cy="80.8" r="3"/>
						<circle class="st3" cx="205.5" cy="78.8" r="3"/>
						<circle class="st5" cx="207.5" cy="81.5" r="1.1"/>
					</g>
					<g>
						<circle class="st2" cx="206.1" cy="68.9" r="1.8"/>
						<circle class="st3" cx="206.4" cy="66.5" r="1.8"/>
						<circle class="st4" cx="208.8" cy="67.1" r="1.8"/>
						<circle class="st2" cx="208.8" cy="69.6" r="1.8"/>
						<circle class="st3" cx="207.3" cy="69.8" r="1.8"/>
						<circle class="st5" cx="207.6" cy="67.9" r="0.7"/>
					</g>
					<g>
						<circle class="st2" cx="76.5" cy="40.1" r="3.7"/>
						<circle class="st3" cx="81.6" cy="40.4" r="3.7"/>
						<circle class="st4" cx="80.7" cy="45.3" r="3.7"/>
						<circle class="st2" cx="75.5" cy="45.8" r="3.7"/>
						<circle class="st3" cx="74.8" cy="42.7" r="3.7"/>
						<circle class="st5" cx="78.9" cy="43" r="1.4"/>
					</g>
					<g>
						<circle class="st2" cx="86.4" cy="28.6" r="3"/>
						<circle class="st3" cx="89.5" cy="25.9" r="3"/>
						<circle class="st4" cx="91.8" cy="29.3" r="3"/>
						<circle class="st2" cx="89" cy="32.5" r="3"/>
						<circle class="st3" cx="86.9" cy="31.1" r="3"/>
						<circle class="st5" cx="89.4" cy="28.9" r="1.1"/>
					</g>
					<g>
						<circle class="st2" cx="77" cy="31.4" r="1.8"/>
						<circle class="st3" cx="74.6" cy="31.2" r="1.8"/>
						<circle class="st4" cx="75" cy="28.9" r="1.8"/>
						<circle class="st2" cx="77.5" cy="28.6" r="1.8"/>
						<circle class="st3" cx="77.8" cy="30.1" r="1.8"/>
						<circle class="st5" cx="75.9" cy="30" r="0.7"/>
					</g>
					<g>
						<circle class="st2" cx="127.9" cy="54.3" r="2.7"/>
						<circle class="st3" cx="129.1" cy="57.9" r="2.7"/>
						<circle class="st4" cx="125.5" cy="58.7" r="2.7"/>
						<circle class="st2" cx="123.7" cy="55.2" r="2.7"/>
						<circle class="st3" cx="125.6" cy="53.9" r="2.7"/>
						<circle class="st5" cx="126.6" cy="56.8" r="1"/>
					</g>
					<g>
						<circle class="st2" cx="138.5" cy="57.9" r="2.2"/>
						<circle class="st3" cx="141.3" cy="59.3" r="2.2"/>
						<circle class="st4" cx="139.6" cy="61.8" r="2.2"/>
						<circle class="st2" cx="136.6" cy="60.8" r="2.2"/>
						<circle class="st3" cx="136.9" cy="58.9" r="2.2"/>
						<circle class="st5" cx="139.2" cy="60" r="0.8"/>
					</g>
					<g>
						<circle class="st2" cx="120.2" cy="15.2" r="2.2"/>
						<circle class="st3" cx="123" cy="16.6" r="2.2"/>
						<circle class="st4" cx="121.3" cy="19.1" r="2.2"/>
						<circle class="st2" cx="118.3" cy="18.1" r="2.2"/>
						<circle class="st3" cx="118.6" cy="16.2" r="2.2"/>
						<circle class="st5" cx="120.8" cy="17.3" r="0.8"/>
					</g>
					<g>
						<circle class="st2" cx="152.6" cy="5.5" r="2.2"/>
						<circle class="st3" cx="155.4" cy="6.9" r="2.2"/>
						<circle class="st4" cx="153.7" cy="9.5" r="2.2"/>
						<circle class="st2" cx="150.7" cy="8.4" r="2.2"/>
						<circle class="st3" cx="151" cy="6.6" r="2.2"/>
						<circle class="st5" cx="153.2" cy="7.7" r="0.8"/>
					</g>
					<g>
						<circle class="st2" cx="155.5" cy="80.6" r="2.2"/>
						<circle class="st3" cx="158.3" cy="82.1" r="2.2"/>
						<circle class="st4" cx="156.6" cy="84.6" r="2.2"/>
						<circle class="st2" cx="153.6" cy="83.6" r="2.2"/>
						<circle class="st3" cx="153.9" cy="81.7" r="2.2"/>
						<circle class="st5" cx="156.1" cy="82.8" r="0.8"/>
					</g>
					<g>
						<circle class="st2" cx="145.5" cy="89.1" r="2.2"/>
						<circle class="st3" cx="148.2" cy="90.5" r="2.2"/>
						<circle class="st4" cx="146.5" cy="93.1" r="2.2"/>
						<circle class="st2" cx="143.5" cy="92.1" r="2.2"/>
						<circle class="st3" cx="143.9" cy="90.2" r="2.2"/>
						<circle class="st5" cx="146.1" cy="91.3" r="0.8"/>
					</g>
					<g>
						<circle class="st2" cx="171.8" cy="70.8" r="2.2"/>
						<circle class="st3" cx="174.5" cy="72.2" r="2.2"/>
						<circle class="st4" cx="172.8" cy="74.8" r="2.2"/>
						<circle class="st2" cx="169.8" cy="73.7" r="2.2"/>
						<circle class="st3" cx="170.2" cy="71.9" r="2.2"/>
						<circle class="st5" cx="172.4" cy="73" r="0.8"/>
					</g>
					<g>
						<circle class="st2" cx="240.1" cy="63.4" r="2.2"/>
						<circle class="st3" cx="242.9" cy="64.8" r="2.2"/>
						<circle class="st4" cx="241.2" cy="67.3" r="2.2"/>
						<circle class="st2" cx="238.2" cy="66.3" r="2.2"/>
						<circle class="st3" cx="238.5" cy="64.5" r="2.2"/>
						<circle class="st5" cx="240.7" cy="65.6" r="0.8"/>
					</g>
					<g>
						<circle class="st2" cx="101.9" cy="60.2" r="2.2"/>
						<circle class="st3" cx="104.7" cy="61.6" r="2.2"/>
						<circle class="st4" cx="103" cy="64.2" r="2.2"/>
						<circle class="st2" cx="99.9" cy="63.2" r="2.2"/>
						<circle class="st3" cx="100.3" cy="61.3" r="2.2"/>
						<circle class="st5" cx="102.5" cy="62.4" r="0.8"/>
					</g>
					<g>
						<circle class="st2" cx="83" cy="55.8" r="2.2"/>
						<circle class="st3" cx="85.7" cy="57.2" r="2.2"/>
						<circle class="st4" cx="84" cy="59.8" r="2.2"/>
						<circle class="st2" cx="81" cy="58.7" r="2.2"/>
						<circle class="st3" cx="81.4" cy="56.9" r="2.2"/>
						<circle class="st5" cx="83.6" cy="58" r="0.8"/>
					</g>
					<g>
						<circle class="st2" cx="134" cy="52.2" r="1.3"/>
						<circle class="st3" cx="133.4" cy="50.5" r="1.3"/>
						<circle class="st4" cx="135.2" cy="50.1" r="1.3"/>
						<circle class="st2" cx="136" cy="51.8" r="1.3"/>
						<circle class="st3" cx="135.1" cy="52.4" r="1.3"/>
						<circle class="st5" cx="134.7" cy="51" r="0.5"/>
					</g>
					<g>
						<circle class="st2" cx="108.2" cy="34.1" r="2.7"/>
						<circle class="st3" cx="109.4" cy="37.7" r="2.7"/>
						<circle class="st4" cx="105.7" cy="38.5" r="2.7"/>
						<circle class="st2" cx="104" cy="35" r="2.7"/>
						<circle class="st3" cx="105.9" cy="33.7" r="2.7"/>
						<circle class="st5" cx="106.8" cy="36.6" r="1"/>
					</g>
					<g>
						<circle class="st2" cx="118.8" cy="37.7" r="2.2"/>
						<circle class="st3" cx="121.5" cy="39.1" r="2.2"/>
						<circle class="st4" cx="119.8" cy="41.6" r="2.2"/>
						<circle class="st2" cx="116.8" cy="40.6" r="2.2"/>
						<circle class="st3" cx="117.2" cy="38.7" r="2.2"/>
						<circle class="st5" cx="119.4" cy="39.9" r="0.8"/>
					</g>
					<g>
						<circle class="st2" cx="114.2" cy="32" r="1.3"/>
						<circle class="st3" cx="113.7" cy="30.3" r="1.3"/>
						<circle class="st4" cx="115.4" cy="30" r="1.3"/>
						<circle class="st2" cx="116.3" cy="31.6" r="1.3"/>
						<circle class="st3" cx="115.3" cy="32.2" r="1.3"/>
						<circle class="st5" cx="114.9" cy="30.9" r="0.5"/>
					</g>
				</g>
				<path class="st6" d="M316.2,102.6c3.5,0,6.3,3.1,6.3,6.9s-2.8,6.9-6.3,6.9l-225-0.8L19,102.8c-3.4-0.2-6.1-3.1-6-6.5
					c0-3.7,2.7-6.6,6-6.6l-0.2-31.1l13.3,13.9l-0.7,17.3v4.1l58,9.9L316.2,102.6z"/>
				<g class="st7">
					<path d="M316.3,86.7c0,0-18.2-45.3-84.8-25.5L18.9,46.9c0-8.6,6.5-15.5,14.3-15.5l43.2,0.2c8.9,0.1,141.8,18.5,141.8,18.5
						l14-12.4h34.9C267.1,37.7,316.3,36.1,316.3,86.7z"/>
				</g>
				
					<ellipse transform="matrix(0.9954 -9.582655e-02 9.582655e-02 0.9954 -8.2449 26.3097)" class="st8" cx="269.8" cy="99" rx="33.7" ry="33.5"/>
				
					<ellipse transform="matrix(0.9954 -9.586423e-02 9.586423e-02 0.9954 -8.2477 26.3203)" class="st6" cx="269.8" cy="99" rx="32.8" ry="32.6"/>
				
					<ellipse transform="matrix(0.9954 -9.582657e-02 9.582657e-02 0.9954 -8.2449 26.3097)" cx="269.8" cy="99" rx="24.7" ry="24.5"/>
				
					<ellipse transform="matrix(0.9954 -9.584539e-02 9.584539e-02 0.9954 -8.2463 26.315)" class="st9" cx="269.8" cy="99" rx="23.5" ry="23.3"/>
				
					<ellipse transform="matrix(0.9954 -9.586420e-02 9.586420e-02 0.9954 -8.2477 26.3203)" class="st10" cx="269.8" cy="99" rx="22.3" ry="22.1"/>
				
					<ellipse transform="matrix(0.2238 -0.9746 0.9746 0.2238 112.9393 339.7374)" class="st11" cx="269.8" cy="99" rx="13.8" ry="13.8"/>
				
					<ellipse transform="matrix(0.995 -9.950721e-02 9.950721e-02 0.995 -8.5082 27.3357)" class="st12" cx="269.8" cy="99" rx="12.7" ry="12.7"/>
				<g>
					<g>
						<defs>
							<path id="SVGID_1_" d="M204.9,48.7c-18.2-36.7-27.7-35.4-27.7-35.4s-24.1-0.8-31.7-0.1s-10.2,5.5-10.2,5.5l-7.6,11.7
								c0,0-5.1,6.9,7.5,8.3C145.4,39.9,204.9,48.7,204.9,48.7z"/>
						</defs>
						<clipPath id="SVGID_00000101105096129454410090000014321298715415279768_">
							<use xlink:href="#SVGID_1_"  style="overflow:visible;"/>
						</clipPath>
						<g style="clip-path:url(#SVGID_00000101105096129454410090000014321298715415279768_);">
							<path class="st14" d="M203.8,12h-81.2v36.7h82.3V12H203.8z"/>
						</g>
					</g>
				</g>
				<g>
					<g>
						<defs>
							<path id="SVGID_00000070808090458846692980000017194143741379391104_" d="M210.1,13.4l22.7,24.3l-12.7,11.7l-20.8-29.1
								c0,0-3.8-4.2,0-6.2L210.1,13.4z"/>
						</defs>
						<clipPath id="SVGID_00000039843129773850509820000015419509609346817937_">
							<use xlink:href="#SVGID_00000070808090458846692980000017194143741379391104_"  style="overflow:visible;"/>
						</clipPath>
						<g style="clip-path:url(#SVGID_00000039843129773850509820000015419509609346817937_);">
							<path class="st16" d="M232,13.4h-36.5v36h37.3v-36L232,13.4z"/>
						</g>
					</g>
				</g>
			</g>
			
				<ellipse transform="matrix(0.9954 -9.585010e-02 9.585010e-02 0.9954 -9.146 8.0099)" class="st8" cx="78.8" cy="99.2" rx="33.7" ry="33.5"/>
			
				<ellipse transform="matrix(0.9954 -9.584068e-02 9.584068e-02 0.9954 -9.1451 8.009)" class="st6" cx="78.8" cy="99.2" rx="32.8" ry="32.6"/>
			<ellipse transform="matrix(0.9954 -9.585009e-02 9.585009e-02 0.9954 -9.146 8.0099)" cx="78.8" cy="99.2" rx="24.7" ry="24.5"/>
			
				<ellipse transform="matrix(0.9954 -9.584539e-02 9.584539e-02 0.9954 -9.1455 8.0095)" class="st9" cx="78.8" cy="99.2" rx="23.5" ry="23.3"/>
			
				<ellipse transform="matrix(0.9954 -9.584069e-02 9.584069e-02 0.9954 -9.1451 8.009)" class="st10" cx="78.8" cy="99.2" rx="22.3" ry="22.1"/>
			<ellipse class="st11" cx="79.6" cy="99.3" rx="13.9" ry="13.9"/>
			<ellipse class="st12" cx="79.6" cy="99.3" rx="12.6" ry="12.6"/>
		</g>
	</g>
</g>
</svg>
